SplineFontDB: 3.0
FontName: Geo-Regular
FullName: Geo
FamilyName: Geo
Weight: Regular
Copyright: Copyright (c) 2000-2010, Ben Weiner (ben@readingtype.org.uk), with Reserved Font Name Geo.
Version: 001.2
ItalicAngle: 0
UnderlinePosition: -136
UnderlineWidth: 20
Ascent: 819
Descent: 205
sfntRevision: 0x00020000
LayerCount: 2
Layer: 0 1 "Back"  1
Layer: 1 1 "Fore"  0
XUID: [1021 496 529952750 5042425]
FSType: 0
OS2Version: 3
OS2_WeightWidthSlopeOnly: 0
OS2_UseTypoMetrics: 1
CreationTime: 1209331743
ModificationTime: 1290844569
PfmFamily: 17
TTFWeight: 500
TTFWidth: 5
LineGap: 92
VLineGap: 0
Panose: 2 0 6 3 0 0 0 0 0 0
OS2TypoAscent: 0
OS2TypoAOffset: 1
OS2TypoDescent: 0
OS2TypoDOffset: 1
OS2TypoLinegap: 92
OS2WinAscent: 0
OS2WinAOffset: 1
OS2WinDescent: 0
OS2WinDOffset: 1
HheadAscent: 0
HheadAOffset: 1
HheadDescent: 0
HheadDOffset: 1
OS2SubXSize: 666
OS2SubYSize: 717
OS2SubXOff: 0
OS2SubYOff: 143
OS2SupXSize: 666
OS2SupYSize: 717
OS2SupXOff: 0
OS2SupYOff: 492
OS2StrikeYSize: 50
OS2StrikeYPos: 264
OS2Vendor: 'PfEd'
OS2CodePages: 00000000.00940000
OS2UnicodeRanges: 8000002f.40000048.00000000.00000000
MarkAttachClasses: 1
DEI: 91125
TtTable: prep
PUSHW_1
 511
SCANCTRL
PUSHB_1
 1
SCANTYPE
SVTCA[y-axis]
MPPEM
PUSHB_1
 8
LT
IF
PUSHB_2
 1
 1
INSTCTRL
EIF
PUSHB_2
 70
 6
CALL
IF
POP
PUSHB_1
 16
EIF
MPPEM
PUSHB_1
 20
GT
IF
POP
PUSHB_1
 128
EIF
SCVTCI
PUSHB_1
 6
CALL
NOT
IF
EIF
PUSHB_1
 20
CALL
EndTTInstrs
TtTable: fpgm
PUSHB_1
 0
FDEF
PUSHB_1
 0
SZP0
MPPEM
PUSHB_1
 42
LT
IF
PUSHB_1
 74
SROUND
EIF
PUSHB_1
 0
SWAP
MIAP[rnd]
RTG
PUSHB_1
 6
CALL
IF
RTDG
EIF
MPPEM
PUSHB_1
 42
LT
IF
RDTG
EIF
DUP
MDRP[rp0,rnd,grey]
PUSHB_1
 1
SZP0
MDAP[no-rnd]
RTG
ENDF
PUSHB_1
 1
FDEF
DUP
MDRP[rp0,min,white]
PUSHB_1
 12
CALL
ENDF
PUSHB_1
 2
FDEF
MPPEM
GT
IF
RCVT
SWAP
EIF
POP
ENDF
PUSHB_1
 3
FDEF
ROUND[Black]
RTG
DUP
PUSHB_1
 64
LT
IF
POP
PUSHB_1
 64
EIF
ENDF
PUSHB_1
 4
FDEF
PUSHB_1
 6
CALL
IF
POP
SWAP
POP
ROFF
IF
MDRP[rp0,min,rnd,black]
ELSE
MDRP[min,rnd,black]
EIF
ELSE
MPPEM
GT
IF
IF

StartChar: .notdef
Encoding: 65536 -1 0
Width: 512
Flags: W
HStem: 0 51<102 410> 495 51<102 410>
VStem: 51 51<51 495> 410 51<51 495>
LayerCount: 2
Fore
SplineSet
51 0 m 1,0,-1
 51 546 l 1,1,-1
 461 546 l 1,2,-1
 461 0 l 1,3,-1
 51 0 l 1,0,-1
102 51 m 1,4,-1
 410 51 l 1,5,-1
 410 495 l 1,6,-1
 102 495 l 1,7,-1
 102 51 l 1,4,-1
EndSplineSet
EndChar

StartChar: exclam
Encoding: 33 33 3
Width: 239
GlyphClass: 2
Flags: W
VStem: 82 76
LayerCount: 2
Fore
SplineSet
158 226 m 1,0,-1
 158 676 l 1,1,-1
 82 676 l 1,2,-1
 82 225 l 1,3,-1
 158 226 l 1,0,-1
158 0 m 1,4,-1
 158 133 l 1,5,-1
 82 133 l 1,6,-1
 82 0 l 1,7,-1
 158 0 l 1,4,-1
EndSplineSet
EndChar

StartChar: quotedbl
Encoding: 34 34 4
Width: 219
GlyphClass: 2
Flags: W
HStem: 481 195
LayerCount: 2
Fore
SplineSet
20 676 m 1,0,-1
 20 481 l 1,1,-1
 96 481 l 1,2,-1
 96 676 l 1,3,-1
 20 676 l 1,0,-1
123 676 m 1,4,-1
 123 481 l 1,5,-1
 199 481 l 1,6,-1
 199 676 l 1,7,-1
 123 676 l 1,4,-1
EndSplineSet
EndChar

StartChar: numbersign
Encoding: 35 35 5
Width: 419
GlyphClass: 2
Flags: W
HStem: 339 71<41 103 184 247 328 379> 493 70<41 102 183 246 327 379>
VStem: 103 80<287 339 410 493 563 636> 247 80<287 339 410 493 563 636>
LayerCount: 2
Fore
SplineSet
247 410 m 1,0,-1
 247 493 l 1,1,-1
 183 493 l 1,2,-1
 183 410 l 1,3,-1
 247 410 l 1,0,-1
247 287 m 1,4,-1
 247 339 l 1,5,-1
 184 339 l 1,6,-1
 184 287 l 1,7,-1
 103 287 l 1,8,-1
 103 339 l 1,9,-1
 41 339 l 1,10,-1
 41 410 l 1,11,-1
 103 410 l 1,12,-1
 103 493 l 1,13,-1
 41 493 l 1,14,-1
 41 563 l 1,15,-1
 102 563 l 1,16,-1
 102 636 l 1,17,-1
 183 636 l 1,18,-1
 183 563 l 1,19,-1
 246 563 l 1,20,-1
 246 636 l 1,21,-1
 327 636 l 1,22,-1
 327 563 l 1,23,-1
 379 563 l 1,24,-1
 379 493 l 1,25,-1
 327 493 l 1,26,-1
 327 410 l 1,27,-1
 379 410 l 1,28,-1
 379 339 l 1,29,-1
 328 339 l 1,30,-1
 328 287 l 1,31,-1
 247 287 l 1,4,-1
EndSplineSet
EndChar

StartChar: dollar
Encoding: 36 36 6
Width: 481
GlyphClass: 2
Flags: W
HStem: 0 113<82 158> 0 75<158 204 275 319> 328 123<324 399> 376 75<162 204 275 324>
VStem: 82 80<75 113 276 376> 204 71<-82 0 75 176 270 376 451 563> 319 78<75 170 328 376>
LayerCount: 2
Fore
SplineSet
275 75 m 1,0,-1
 319 75 l 1,1,-1
 319 170 l 1,2,-1
 275 176 l 1,3,-1
 275 75 l 1,0,-1
204 376 m 1,4,-1
 162 376 l 1,5,-1
 162 276 l 1,6,-1
 204 270 l 1,7,-1
 204 376 l 1,4,-1
275 563 m 1,8,-1
 275 451 l 1,9,-1
 399 451 l 1,10,-1
 399 328 l 1,11,-1
 324 328 l 1,12,-1
 324 376 l 1,13,-1
 275 376 l 1,14,-1
 275 260 l 1,15,-1
 397 243 l 1,16,-1
 397 1 l 1,17,-1
 275 1 l 1,18,-1
 275 -82 l 1,19,-1
 204 -82 l 1,20,-1
 204 0 l 1,21,-1
 82 0 l 1,22,-1
 82 113 l 1,23,-1
 158 113 l 1,24,-1
 158 75 l 1,25,-1
 204 75 l 1,26,-1
 204 187 l 1,27,-1
 82 205 l 1,28,-1
 82 451 l 1,29,-1
 204 451 l 1,30,-1
 204 563 l 1,31,-1
 275 563 l 1,8,-1
EndSplineSet
EndChar

StartChar: percent
Encoding: 37 37 7
Width: 538
GlyphClass: 2
Flags: W
HStem: 0 43<386 463> 164 45<386 463> 358 43<79 156> 522 45<79 156>
VStem: 20 59<401 522> 156 55<401 523> 328 58<43 164> 463 55<43 164>
LayerCount: 2
Fore
SplineSet
397 589 m 1,0,-1
 59 4 l 1,1,-1
 125 -34 l 1,2,-1
 463 551 l 1,3,-1
 397 589 l 1,0,-1
20 358 m 1,4,-1
 20 567 l 1,5,-1
 211 567 l 1,6,-1
 211 358 l 1,7,-1
 20 358 l 1,4,-1
156 523 m 1,8,-1
 79 522 l 1,9,-1
 79 401 l 1,10,-1
 156 401 l 1,11,-1
 156 523 l 1,8,-1
328 0 m 1,12,-1
 328 209 l 1,13,-1
 518 209 l 1,14,-1
 518 0 l 1,15,-1
 328 0 l 1,12,-1
463 164 m 1,16,-1
 386 164 l 1,17,-1
 386 43 l 1,18,-1
 463 43 l 1,19,-1
 463 164 l 1,16,-1
EndSplineSet
EndChar

StartChar: ampersand
Encoding: 38 38 8
Width: 512
GlyphClass: 2
Flags: W
HStem: 0 77<162 303> 256 72<233 303 379 430> 502 71<233 324>
VStem: 82 80<77 256> 154 79<328 502> 303 76<77 256 328 410>
LayerCount: 2
Fore
SplineSet
379 410 m 1,0,-1
 379 328 l 1,1,-1
 430 328 l 1,2,-1
 430 257 l 1,3,-1
 379 257 l 1,4,-1
 379 0 l 1,5,-1
 82 0 l 1,6,-1
 82 328 l 1,7,-1
 154 328 l 1,8,-1
 154 573 l 1,9,-1
 324 573 l 1,10,-1
 324 502 l 1,11,-1
 233 502 l 1,12,-1
 233 328 l 1,13,-1
 303 328 l 1,14,-1
 303 410 l 1,15,-1
 379 410 l 1,0,-1
303 77 m 1,16,-1
 303 256 l 1,17,-1
 162 256 l 1,18,-1
 162 77 l 1,19,-1
 303 77 l 1,16,-1
EndSplineSet
EndChar

StartChar: quotesingle
Encoding: 39 39 9
Width: 116
GlyphClass: 2
Flags: W
HStem: 481 195
VStem: 20 76
LayerCount: 2
Fore
SplineSet
20 676 m 1,0,-1
 20 481 l 1,1,-1
 96 481 l 1,2,-1
 96 676 l 1,3,-1
 20 676 l 1,0,-1
EndSplineSet
EndChar

StartChar: parenleft
Encoding: 40 40 10
Width: 239
GlyphClass: 2
Flags: W
HStem: -113 82<158 228> 594 82<158 228>
VStem: 82 146<-113 -31 594 676> 82 76<-31 594>
LayerCount: 2
Fore
SplineSet
228 -113 m 1,0,-1
 82 -113 l 1,1,-1
 82 676 l 1,2,-1
 228 676 l 1,3,-1
 228 594 l 1,4,-1
 158 594 l 1,5,-1
 158 -31 l 1,6,-1
 228 -31 l 1,7,-1
 228 -113 l 1,0,-1
EndSplineSet
EndChar

StartChar: parenright
Encoding: 41 41 11
Width: 239
GlyphClass: 2
Flags: W
VStem: 82 146
LayerCount: 2
Fore
SplineSet
82 -113 m 1,0,-1
 228 -113 l 1,1,-1
 228 676 l 1,2,-1
 82 676 l 1,3,-1
 82 594 l 1,4,-1
 153 594 l 1,5,-1
 153 -31 l 1,6,-1
 82 -31 l 1,7,-1
 82 -113 l 1,0,-1
EndSplineSet
EndChar

StartChar: asterisk
Encoding: 42 42 12
Width: 491
GlyphClass: 2
Flags: W
VStem: 118 71<256 369 502 614>
LayerCount: 2
Fore
SplineSet
118 256 m 1,0,-1
 118 369 l 1,1,-1
 46 317 l 1,2,-1
 5 389 l 1,3,-1
 87 427 l 1,4,-1
 5 481 l 1,5,-1
 46 543 l 1,6,-1
 118 502 l 1,7,-1
 118 614 l 1,8,-1
 189 614 l 1,9,-1
 189 502 l 1,10,-1
 261 543 l 1,11,-1
 312 478 l 1,12,-1
 230 427 l 1,13,-1
 312 389 l 1,14,-1
 261 317 l 1,15,-1
 189 369 l 1,16,-1
 189 256 l 1,17,-1
 118 256 l 1,0,-1
EndSplineSet
EndChar

StartChar: plus
Encoding: 43 43 13
Width: 491
GlyphClass: 2
Flags: W
HStem: 0 21G<200 282> 205 71<26 200 282 466> 431 20G<200 282> 431 20G<200 282>
VStem: 200 82<0 205 276 451>
LayerCount: 2
Fore
SplineSet
200 0 m 1,0,-1
 200 205 l 1,1,-1
 26 205 l 1,2,-1
 26 276 l 1,3,-1
 200 276 l 1,4,-1
 200 451 l 1,5,-1
 282 451 l 1,6,-1
 282 276 l 1,7,-1
 466 276 l 1,8,-1
 466 205 l 1,9,-1
 282 205 l 1,10,-1
 282 0 l 1,11,-1
 200 0 l 1,0,-1
EndSplineSet
EndChar

StartChar: comma
Encoding: 44 44 14
Width: 239
GlyphClass: 2
Flags: W
HStem: -82 205<102 127>
VStem: 51 127
LayerCount: 2
Fore
SplineSet
51 -82 m 1,0,-1
 102 123 l 1,1,-1
 178 123 l 1,2,-1
 127 -82 l 1,3,-1
 51 -82 l 1,0,-1
EndSplineSet
EndChar

StartChar: hyphen
Encoding: 45 45 15
Width: 327
GlyphClass: 2
Flags: W
HStem: 205 71
VStem: 26 276
LayerCount: 2
Fore
SplineSet
302 205 m 1,0,-1
 302 276 l 1,1,-1
 26 276 l 1,2,-1
 26 205 l 1,3,-1
 302 205 l 1,0,-1
EndSplineSet
EndChar

StartChar: period
Encoding: 46 46 16
Width: 239
GlyphClass: 2
Flags: W
HStem: 0 123
VStem: 82 76
LayerCount: 2
Fore
SplineSet
82 123 m 1,0,-1
 82 0 l 1,1,-1
 158 0 l 1,2,-1
 158 123 l 1,3,-1
 82 123 l 1,0,-1
EndSplineSet
EndChar

StartChar: slash
Encoding: 47 47 17
Width: 239
GlyphClass: 2
Flags: W
LayerCount: 2
Fore
SplineSet
169 675 m 1,0,-1
 -3 -136 l 1,1,-1
 71 -153 l 1,2,-1
 243 658 l 1,3,-1
 169 675 l 1,0,-1
EndSplineSet
EndChar

StartChar: zero
Encoding: 48 48 18
Width: 512
GlyphClass: 2
Flags: W
HStem: 0 72<177 339> 376 75<177 339>
VStem: 97 80<72 376> 339 76<72 377>
LayerCount: 2
Fore
SplineSet
97 0 m 1,0,-1
 97 451 l 1,1,-1
 415 451 l 1,2,-1
 415 0 l 1,3,-1
 97 0 l 1,0,-1
339 377 m 1,4,-1
 177 376 l 1,5,-1
 177 72 l 1,6,-1
 339 72 l 1,7,-1
 339 377 l 1,4,-1
EndSplineSet
EndChar

StartChar: one
Encoding: 49 49 19
Width: 512
GlyphClass: 2
Flags: W
HStem: 0 21G<281 356> 379 71<108 281>
VStem: 281 75<0 379>
LayerCount: 2
Fore
SplineSet
356 0 m 1,0,-1
 281 0 l 1,1,-1
 281 379 l 1,2,-1
 108 379 l 1,3,-1
 108 450 l 1,4,-1
 356 451 l 1,5,-1
 356 0 l 1,0,-1
EndSplineSet
EndChar

StartChar: two
Encoding: 50 50 20
Width: 512
GlyphClass: 2
Flags: W
HStem: 1 74<218 415> 376 75<173 335>
VStem: 97 76<287 376> 335 80<276 376>
LayerCount: 2
Fore
SplineSet
415 75 m 1,0,-1
 415 0 l 1,1,-1
 99 1 l 1,2,-1
 99 79 l 1,3,-1
 335 276 l 1,4,-1
 335 376 l 1,5,-1
 173 376 l 1,6,-1
 173 287 l 1,7,-1
 97 287 l 1,8,-1
 97 451 l 1,9,-1
 415 451 l 1,10,-1
 415 225 l 1,11,-1
 218 75 l 1,12,-1
 415 75 l 1,0,-1
EndSplineSet
EndChar

StartChar: three
Encoding: 51 51 21
Width: 512
GlyphClass: 2
Flags: W
VStem: 97 318
LayerCount: 2
Fore
SplineSet
334 196 m 1,0,-1
 334 75 l 1,1,-1
 173 75 l 1,2,-1
 173 133 l 1,3,-1
 97 133 l 1,4,-1
 97 0 l 1,5,-1
 415 0 l 1,6,-1
 415 256 l 1,7,-1
 299 256 l 1,8,-1
 413 372 l 1,9,-1
 413 450 l 1,10,-1
 97 451 l 1,11,-1
 97 376 l 1,12,-1
 294 376 l 1,13,-1
 179 256 l 1,14,-1
 179 196 l 1,15,-1
 334 196 l 1,0,-1
EndSplineSet
EndChar

StartChar: four
Encoding: 52 52 22
Width: 512
GlyphClass: 2
Flags: W
HStem: 0 75<175 302 382 443> 431 20G<289.903 382> 431 20G<289.903 382>
VStem: 302 80<-102 0 75 294>
LayerCount: 2
Fore
SplineSet
302 75 m 1,0,-1
 302 294 l 1,1,-1
 175 75 l 1,2,-1
 302 75 l 1,0,-1
382 -102 m 1,3,-1
 302 -102 l 1,4,-1
 302 0 l 1,5,-1
 77 1 l 1,6,-1
 77 79 l 1,7,-1
 302 451 l 1,8,-1
 382 451 l 1,9,-1
 382 75 l 1,10,-1
 443 75 l 1,11,-1
 443 0 l 1,12,-1
 382 0 l 1,13,-1
 382 -102 l 1,3,-1
EndSplineSet
EndChar

StartChar: five
Encoding: 53 53 23
Width: 512
GlyphClass: 2
Flags: W
VStem: 97 318
LayerCount: 2
Fore
SplineSet
334 196 m 1,0,-1
 334 75 l 1,1,-1
 173 75 l 1,2,-1
 173 133 l 1,3,-1
 97 133 l 1,4,-1
 97 0 l 1,5,-1
 415 0 l 1,6,-1
 415 276 l 1,7,-1
 185 276 l 1,8,-1
 185 372 l 1,9,-1
 415 373 l 1,10,-1
 415 450 l 1,11,-1
 97 450 l 1,12,-1
 97 196 l 1,13,-1
 334 196 l 1,0,-1
EndSplineSet
EndChar

StartChar: six
Encoding: 54 54 24
Width: 512
GlyphClass: 2
Flags: W
HStem: 0 75<173 334> 196 80<173 334> 372 78<173 415>
VStem: 97 76<75 196 276 372> 334 81<75 196>
LayerCount: 2
Fore
SplineSet
97 450 m 1,0,-1
 415 450 l 1,1,-1
 415 373 l 1,2,-1
 173 372 l 1,3,-1
 173 276 l 1,4,-1
 415 276 l 1,5,-1
 415 0 l 1,6,-1
 97 0 l 1,7,-1
 97 450 l 1,0,-1
334 196 m 1,8,-1
 173 196 l 1,9,-1
 173 75 l 1,10,-1
 334 75 l 1,11,-1
 334 196 l 1,8,-1
EndSplineSet
EndChar

StartChar: seven
Encoding: 55 55 25
Width: 512
GlyphClass: 2
Flags: W
VStem: 98 316
LayerCount: 2
Fore
SplineSet
414 372 m 1,0,-1
 414 450 l 1,1,-1
 98 450 l 1,2,-1
 98 372 l 1,3,-1
 326 372 l 1,4,-1
 150 1 l 1,5,-1
 260 0 l 1,6,-1
 414 372 l 1,0,-1
EndSplineSet
EndChar

StartChar: eight
Encoding: 56 56 26
Width: 512
GlyphClass: 2
Flags: W
HStem: 1 77<178 339> 174 81<178 339> 376 75<178 339>
VStem: 97 81<78 174 255 376> 339 76<79 174 255 376>
LayerCount: 2
Fore
SplineSet
178 255 m 1,0,-1
 339 255 l 1,1,-1
 339 376 l 1,2,-1
 178 376 l 1,3,-1
 178 255 l 1,0,-1
178 174 m 1,4,-1
 178 78 l 1,5,-1
 339 79 l 1,6,-1
 339 174 l 1,7,-1
 178 174 l 1,4,-1
97 451 m 1,8,-1
 415 451 l 1,9,-1
 415 0 l 1,10,-1
 97 1 l 1,11,-1
 97 451 l 1,8,-1
EndSplineSet
EndChar

StartChar: nine
Encoding: 57 57 27
Width: 512
GlyphClass: 2
Flags: W
HStem: 1 77<97 339> 174 81<178 339> 376 75<178 339>
VStem: 97 81<255 376> 339 76<79 174 255 376>
LayerCount: 2
Fore
SplineSet
415 0 m 1,0,-1
 97 1 l 1,1,-1
 97 78 l 1,2,-1
 339 79 l 1,3,-1
 339 174 l 1,4,-1
 97 174 l 1,5,-1
 97 451 l 1,6,-1
 415 451 l 1,7,-1
 415 0 l 1,0,-1
178 255 m 1,8,-1
 339 255 l 1,9,-1
 339 376 l 1,10,-1
 178 376 l 1,11,-1
 178 255 l 1,8,-1
EndSplineSet
EndChar

StartChar: colon
Encoding: 58 58 28
Width: 239
GlyphClass: 2
Flags: W
VStem: 82 76
LayerCount: 2
Fore
SplineSet
82 123 m 1,0,-1
 82 0 l 1,1,-1
 158 0 l 1,2,-1
 158 123 l 1,3,-1
 82 123 l 1,0,-1
82 451 m 1,4,-1
 82 328 l 1,5,-1
 158 328 l 1,6,-1
 158 451 l 1,7,-1
 82 451 l 1,4,-1
EndSplineSet
EndChar

StartChar: semicolon
Encoding: 59 59 29
Width: 239
GlyphClass: 2
Flags: W
VStem: 51 127
LayerCount: 2
Fore
SplineSet
82 451 m 1,0,-1
 82 328 l 1,1,-1
 158 328 l 1,2,-1
 158 451 l 1,3,-1
 82 451 l 1,0,-1
51 -82 m 1,4,-1
 102 123 l 1,5,-1
 178 123 l 1,6,-1
 127 -82 l 1,7,-1
 51 -82 l 1,4,-1
EndSplineSet
EndChar

StartChar: less
Encoding: 60 60 30
Width: 512
GlyphClass: 2
Flags: W
LayerCount: 2
Fore
SplineSet
10 236 m 1,0,-1
 438 467 l 1,1,-1
 502 399 l 1,2,-1
 177 236 l 1,3,-1
 502 72 l 1,4,-1
 438 4 l 1,5,-1
 10 236 l 1,0,-1
EndSplineSet
EndChar

StartChar: equal
Encoding: 61 61 31
Width: 491
GlyphClass: 2
Flags: W
LayerCount: 2
Fore
SplineSet
466 246 m 1,0,-1
 466 317 l 1,1,-1
 26 317 l 1,2,-1
 26 246 l 1,3,-1
 466 246 l 1,0,-1
466 123 m 1,4,-1
 466 195 l 1,5,-1
 26 195 l 1,6,-1
 26 123 l 1,7,-1
 466 123 l 1,4,-1
EndSplineSet
EndChar

StartChar: greater
Encoding: 62 62 32
Width: 512
GlyphClass: 2
Flags: W
LayerCount: 2
Fore
SplineSet
502 236 m 1,0,-1
 74 467 l 1,1,-1
 10 399 l 1,2,-1
 335 236 l 1,3,-1
 10 72 l 1,4,-1
 74 4 l 1,5,-1
 502 236 l 1,0,-1
EndSplineSet
EndChar

StartChar: question
Encoding: 63 63 33
Width: 481
GlyphClass: 2
Flags: W
HStem: 287 70<262 324> 561 74<82 324>
VStem: 184 76<195 287> 324 73<357 561>
LayerCount: 2
Fore
SplineSet
82 635 m 1,0,-1
 397 635 l 1,1,-1
 397 287 l 1,2,-1
 262 287 l 1,3,-1
 262 195 l 1,4,-1
 184 195 l 1,5,-1
 184 357 l 1,6,-1
 324 357 l 1,7,-1
 324 561 l 1,8,-1
 81 561 l 1,9,-1
 82 635 l 1,0,-1
184 123 m 1,10,-1
 184 0 l 1,11,-1
 260 0 l 1,12,-1
 260 123 l 1,13,-1
 184 123 l 1,10,-1
EndSplineSet
EndChar

StartChar: at
Encoding: 64 64 34
Width: 583
GlyphClass: 2
Flags: W
HStem: -154 80<163 502> 0 74<322 422> 193 73<322 422> 379 72<163 422>
VStem: 82 81<-74 379> 248 74<74 193> 422 80<74 193 266 379>
LayerCount: 2
Fore
SplineSet
502 -154 m 1,0,-1
 82 -154 l 1,1,-1
 82 451 l 1,2,-1
 502 451 l 1,3,-1
 502 0 l 1,4,-1
 248 0 l 1,5,-1
 248 266 l 1,6,-1
 422 266 l 1,7,-1
 422 379 l 1,8,-1
 163 379 l 1,9,-1
 163 -74 l 1,10,-1
 502 -74 l 1,11,-1
 502 -154 l 1,0,-1
422 74 m 1,12,-1
 422 193 l 1,13,-1
 322 193 l 1,14,-1
 322 74 l 1,15,-1
 422 74 l 1,12,-1
EndSplineSet
EndChar

StartChar: A
Encoding: 65 65 35
Width: 481
GlyphClass: 2
Flags: W
HStem: 0 21G<82 158 319 399> 256 72<158 319> 502 71<158 319>
VStem: 82 76<0 256 328 502> 319 80<0 256 328 502>
LayerCount: 2
Fore
SplineSet
158 502 m 1,0,-1
 158 328 l 1,1,-1
 319 328 l 1,2,-1
 319 502 l 1,3,-1
 158 502 l 1,0,-1
399 0 m 1,4,-1
 319 0 l 1,5,-1
 319 256 l 1,6,-1
 158 256 l 1,7,-1
 158 0 l 1,8,-1
 82 0 l 1,9,-1
 82 573 l 1,10,-1
 399 573 l 1,11,-1
 399 0 l 1,4,-1
EndSplineSet
EndChar

StartChar: B
Encoding: 66 66 36
Width: 481
GlyphClass: 2
Flags: W
HStem: 0 77<158 319> 266 72<158 279> 502 71<158 279>
VStem: 82 76<77 266 338 502> 279 79<338 502> 319 80<77 266>
LayerCount: 2
Fore
SplineSet
158 502 m 1,0,-1
 158 338 l 1,1,-1
 279 338 l 1,2,-1
 279 502 l 1,3,-1
 158 502 l 1,0,-1
82 0 m 1,4,-1
 82 573 l 1,5,-1
 358 573 l 1,6,-1
 358 338 l 1,7,-1
 399 338 l 1,8,-1
 399 0 l 1,9,-1
 82 0 l 1,4,-1
158 77 m 1,10,-1
 319 77 l 1,11,-1
 319 266 l 1,12,-1
 158 266 l 1,13,-1
 158 77 l 1,10,-1
EndSplineSet
EndChar

StartChar: C
Encoding: 67 67 37
Width: 481
GlyphClass: 2
Flags: W
HStem: 0 72<162 391> 499 74<162 324>
VStem: 82 80<72 499> 324 75<410 499>
LayerCount: 2
Fore
SplineSet
324 499 m 1,0,-1
 162 499 l 1,1,-1
 162 72 l 1,2,-1
 391 72 l 1,3,-1
 391 0 l 1,4,-1
 82 0 l 1,5,-1
 82 573 l 1,6,-1
 399 573 l 1,7,-1
 399 410 l 1,8,-1
 324 410 l 1,9,-1
 324 499 l 1,0,-1
EndSplineSet
EndChar

StartChar: D
Encoding: 68 68 38
Width: 481
GlyphClass: 2
Flags: W
HStem: 0 78<158 289> 501 72<158 289>
VStem: 82 76<78 501> 309 90<123 440>
LayerCount: 2
Fore
SplineSet
158 78 m 1,0,-1
 289 78 l 1,1,-1
 309 102 l 1,2,-1
 309 471 l 1,3,-1
 289 501 l 1,4,-1
 158 501 l 1,5,-1
 158 78 l 1,0,-1
82 0 m 1,6,-1
 82 573 l 1,7,-1
 307 573 l 1,8,-1
 399 440 l 1,9,-1
 399 123 l 1,10,-1
 297 0 l 1,11,-1
 82 0 l 1,6,-1
EndSplineSet
EndChar

StartChar: E
Encoding: 69 69 39
Width: 481
GlyphClass: 2
Flags: W
HStem: 0 78<158 399> 306 72<158 399> 502 71<158 399>
VStem: 82 317<0 78 306 378 502 573> 82 76<78 306 378 502>
LayerCount: 2
Fore
SplineSet
399 78 m 1,0,-1
 399 0 l 1,1,-1
 82 0 l 1,2,-1
 82 573 l 1,3,-1
 399 574 l 1,4,-1
 399 502 l 1,5,-1
 158 502 l 1,6,-1
 158 378 l 1,7,-1
 399 378 l 1,8,-1
 399 306 l 1,9,-1
 158 306 l 1,10,-1
 158 78 l 1,11,-1
 399 78 l 1,0,-1
EndSplineSet
EndChar

StartChar: F
Encoding: 70 70 40
Width: 481
GlyphClass: 2
Flags: W
HStem: 0 21G<82 158> 306 72<158 399> 502 71<158 399>
VStem: 82 76<0 306 378 502>
LayerCount: 2
Fore
SplineSet
158 0 m 1,0,-1
 82 0 l 1,1,-1
 82 573 l 1,2,-1
 399 574 l 1,3,-1
 399 502 l 1,4,-1
 158 502 l 1,5,-1
 158 378 l 1,6,-1
 399 378 l 1,7,-1
 399 306 l 1,8,-1
 158 306 l 1,9,-1
 158 0 l 1,0,-1
EndSplineSet
EndChar

StartChar: G
Encoding: 71 71 41
Width: 481
GlyphClass: 2
Flags: W
HStem: 0 72<162 323> 308 71<225 323> 498 75<162 399>
VStem: 82 80<72 498> 323 76<72 308>
LayerCount: 2
Fore
SplineSet
225 379 m 1,0,-1
 399 379 l 1,1,-1
 399 0 l 1,2,-1
 82 0 l 1,3,-1
 82 573 l 1,4,-1
 399 573 l 1,5,-1
 399 498 l 1,6,-1
 162 498 l 1,7,-1
 162 72 l 1,8,-1
 323 72 l 1,9,-1
 323 308 l 1,10,-1
 225 308 l 1,11,-1
 225 379 l 1,0,-1
EndSplineSet
EndChar

StartChar: H
Encoding: 72 72 42
Width: 481
GlyphClass: 2
Flags: W
LayerCount: 2
Fore
SplineSet
319 379 m 1,0,-1
 158 379 l 1,1,-1
 158 573 l 1,2,-1
 82 573 l 1,3,-1
 82 0 l 1,4,-1
 158 0 l 1,5,-1
 158 307 l 1,6,-1
 319 307 l 1,7,-1
 319 0 l 1,8,-1
 399 0 l 1,9,-1
 399 573 l 1,10,-1
 319 573 l 1,11,-1
 319 379 l 1,0,-1
EndSplineSet
EndChar

StartChar: I
Encoding: 73 73 43
Width: 324
GlyphClass: 2
Flags: W
HStem: 0 74<57 124 200 273> 500 73<51 124 200 268>
VStem: 57 216<0 74 500 573>
LayerCount: 2
Fore
SplineSet
124 500 m 1,0,-1
 51 500 l 1,1,-1
 51 573 l 1,2,-1
 268 573 l 1,3,-1
 268 500 l 1,4,-1
 200 500 l 1,5,-1
 200 74 l 1,6,-1
 273 74 l 1,7,-1
 273 0 l 1,8,-1
 57 0 l 1,9,-1
 57 74 l 1,10,-1
 124 74 l 1,11,-1
 124 500 l 1,0,-1
EndSplineSet
EndChar

StartChar: J
Encoding: 74 74 44
Width: 230
GlyphClass: 2
Flags: W
HStem: -154 74<0 102> 553 20G<102 179>
VStem: 102 77<-80 573>
LayerCount: 2
Fore
SplineSet
102 573 m 1,0,-1
 179 573 l 1,1,-1
 179 -154 l 1,2,-1
 0 -154 l 1,3,-1
 0 -80 l 1,4,-1
 102 -80 l 1,5,-1
 102 573 l 1,0,-1
EndSplineSet
EndChar

StartChar: K
Encoding: 75 75 45
Width: 481
GlyphClass: 2
Flags: W
LayerCount: 2
Fore
SplineSet
430 0 m 1,0,-1
 230 302 l 1,1,-1
 420 573 l 1,2,-1
 311 573 l 1,3,-1
 158 328 l 1,4,-1
 158 573 l 1,5,-1
 82 573 l 1,6,-1
 82 0 l 1,7,-1
 158 0 l 1,8,-1
 158 256 l 1,9,-1
 173 256 l 1,10,-1
 312 0 l 1,11,-1
 430 0 l 1,0,-1
EndSplineSet
EndChar

StartChar: L
Encoding: 76 76 46
Width: 481
GlyphClass: 2
Flags: W
HStem: 0 78<158 399> 554 20G<82 158>
VStem: 82 76<78 573>
LayerCount: 2
Fore
SplineSet
158 78 m 1,0,-1
 399 78 l 1,1,-1
 399 0 l 1,2,-1
 82 0 l 1,3,-1
 82 573 l 1,4,-1
 158 574 l 1,5,-1
 158 78 l 1,0,-1
EndSplineSet
EndChar

StartChar: M
Encoding: 77 77 47
Width: 716
GlyphClass: 2
Flags: W
HStem: 0 21G<82 158 317 399 555 635> 502 71<158 317 399 555>
VStem: 82 76<0 502> 317 82<0 502> 555 80<0 502>
LayerCount: 2
Fore
SplineSet
399 0 m 1,0,-1
 317 0 l 1,1,-1
 317 502 l 1,2,-1
 158 502 l 1,3,-1
 158 0 l 1,4,-1
 82 0 l 1,5,-1
 82 573 l 1,6,-1
 635 573 l 1,7,-1
 635 0 l 1,8,-1
 555 0 l 1,9,-1
 555 502 l 1,10,-1
 399 502 l 1,11,-1
 399 0 l 1,0,-1
EndSplineSet
EndChar

StartChar: N
Encoding: 78 78 48
Width: 481
GlyphClass: 2
Flags: W
LayerCount: 2
Fore
SplineSet
155 574 m 1,0,-1
 82 573 l 1,1,-1
 82 0 l 1,2,-1
 158 0 l 1,3,-1
 158 358 l 1,4,-1
 339 0 l 1,5,-1
 399 0 l 1,6,-1
 399 573 l 1,7,-1
 319 573 l 1,8,-1
 319 256 l 1,9,-1
 155 574 l 1,0,-1
EndSplineSet
EndChar

StartChar: O
Encoding: 79 79 49
Width: 481
GlyphClass: 2
Flags: W
HStem: 0 78<158 319> 501 72<158 319>
VStem: 82 76<78 501> 319 80<78 501>
LayerCount: 2
Fore
SplineSet
158 78 m 1,0,-1
 319 78 l 1,1,-1
 319 501 l 1,2,-1
 158 501 l 1,3,-1
 158 78 l 1,0,-1
82 0 m 1,4,-1
 82 573 l 1,5,-1
 399 573 l 1,6,-1
 399 0 l 1,7,-1
 82 0 l 1,4,-1
EndSplineSet
EndChar

StartChar: P
Encoding: 80 80 50
Width: 460
GlyphClass: 2
Flags: W
HStem: 0 21G<82 159> 256 72<158 299> 502 71<158 299>
VStem: 82 76<0 256 328 502> 299 80<328 502>
LayerCount: 2
Fore
SplineSet
379 256 m 1,0,-1
 158 256 l 1,1,-1
 159 0 l 1,2,-1
 82 0 l 1,3,-1
 82 573 l 1,4,-1
 379 573 l 1,5,-1
 379 256 l 1,0,-1
299 328 m 1,6,-1
 299 502 l 1,7,-1
 158 502 l 1,8,-1
 158 328 l 1,9,-1
 299 328 l 1,6,-1
EndSplineSet
EndChar

StartChar: Q
Encoding: 81 81 51
Width: 481
GlyphClass: 2
Flags: W
HStem: 0 78<158 246> 501 72<158 319>
VStem: 82 76<78 501> 246 76<-154 0> 319 80<78 502>
LayerCount: 2
Fore
SplineSet
322 -154 m 1,0,-1
 246 -154 l 1,1,-1
 246 0 l 1,2,-1
 82 0 l 1,3,-1
 82 573 l 1,4,-1
 399 573 l 1,5,-1
 399 0 l 1,6,-1
 322 0 l 1,7,-1
 322 -154 l 1,0,-1
319 78 m 1,8,-1
 319 502 l 1,9,-1
 158 501 l 1,10,-1
 158 78 l 1,11,-1
 319 78 l 1,8,-1
EndSplineSet
EndChar

StartChar: R
Encoding: 82 82 52
Width: 481
GlyphClass: 2
Flags: W
HStem: 0 21G<82 159 319.062 430> 256 72<158 190 291 299> 502 71<158 299>
VStem: 82 76<0 256 328 502> 299 80<328 502>
LayerCount: 2
Fore
SplineSet
430 0 m 1,0,-1
 330 0 l 1,1,-1
 190 256 l 1,2,-1
 158 256 l 1,3,-1
 159 0 l 1,4,-1
 82 0 l 1,5,-1
 82 573 l 1,6,-1
 379 573 l 1,7,-1
 379 256 l 1,8,-1
 291 256 l 1,9,-1
 430 0 l 1,0,-1
299 328 m 1,10,-1
 299 502 l 1,11,-1
 158 502 l 1,12,-1
 158 328 l 1,13,-1
 299 328 l 1,10,-1
EndSplineSet
EndChar

StartChar: S
Encoding: 83 83 53
Width: 481
GlyphClass: 2
Flags: W
LayerCount: 2
Fore
SplineSet
158 75 m 1,0,-1
 158 164 l 1,1,-1
 82 164 l 1,2,-1
 82 0 l 1,3,-1
 397 1 l 1,4,-1
 397 243 l 1,5,-1
 162 379 l 1,6,-1
 162 499 l 1,7,-1
 324 499 l 1,8,-1
 324 410 l 1,9,-1
 399 410 l 1,10,-1
 399 573 l 1,11,-1
 82 573 l 1,12,-1
 82 307 l 1,13,-1
 319 170 l 1,14,-1
 319 75 l 1,15,-1
 158 75 l 1,0,-1
EndSplineSet
EndChar

StartChar: T
Encoding: 84 84 54
Width: 481
GlyphClass: 2
Flags: W
HStem: 0 21G<205 281> 500 73<81 205 281 399>
VStem: 205 76<0 500>
LayerCount: 2
Fore
SplineSet
281 0 m 1,0,-1
 205 0 l 1,1,-1
 205 500 l 1,2,-1
 81 500 l 1,3,-1
 81 573 l 1,4,-1
 399 573 l 1,5,-1
 399 500 l 1,6,-1
 281 500 l 1,7,-1
 281 0 l 1,0,-1
EndSplineSet
EndChar

StartChar: U
Encoding: 85 85 55
Width: 481
GlyphClass: 2
Flags: W
HStem: 0 72<158 319> 553 20G<82 158 319 399>
VStem: 82 76<72 573> 319 80<72 573>
LayerCount: 2
Fore
SplineSet
399 573 m 1,0,-1
 399 0 l 1,1,-1
 82 0 l 1,2,-1
 82 573 l 1,3,-1
 158 573 l 1,4,-1
 158 72 l 1,5,-1
 319 72 l 1,6,-1
 319 573 l 1,7,-1
 399 573 l 1,0,-1
EndSplineSet
EndChar

StartChar: V
Encoding: 86 86 56
Width: 450
GlyphClass: 2
Flags: W
HStem: 0 82<209 238> 553 20G<41 139.933 306.108 410>
VStem: 41 96<532.733 573> 309 101<533.124 573>
LayerCount: 2
Fore
SplineSet
410 573 m 1,0,-1
 307 0 l 1,1,-1
 143 0 l 1,2,-1
 41 573 l 1,3,-1
 137 573 l 1,4,-1
 209 82 l 1,5,-1
 238 82 l 1,6,-1
 309 573 l 1,7,-1
 410 573 l 1,0,-1
EndSplineSet
EndChar

StartChar: W
Encoding: 87 87 57
Width: 716
GlyphClass: 2
Flags: W
HStem: 0 72<162 317 399 559> 553 20G<82 162 317 399 559 635>
VStem: 82 80<72 573> 317 82<72 573> 559 76<72 573>
LayerCount: 2
Fore
SplineSet
317 573 m 1,0,-1
 399 573 l 1,1,-1
 399 72 l 1,2,-1
 559 72 l 1,3,-1
 559 573 l 1,4,-1
 635 573 l 1,5,-1
 635 0 l 1,6,-1
 82 0 l 1,7,-1
 82 573 l 1,8,-1
 162 573 l 1,9,-1
 162 72 l 1,10,-1
 317 72 l 1,11,-1
 317 573 l 1,0,-1
EndSplineSet
EndChar

StartChar: X
Encoding: 88 88 58
Width: 481
GlyphClass: 2
Flags: W
HStem: 0 21G<31 144.188 332.812 451> 553 20G<41 153.694 323.306 440>
LayerCount: 2
Fore
SplineSet
451 0 m 1,0,-1
 340 0 l 1,1,-1
 248 256 l 1,2,-1
 229 256 l 1,3,-1
 137 0 l 1,4,-1
 31 0 l 1,5,-1
 150 307 l 1,6,-1
 41 573 l 1,7,-1
 147 573 l 1,8,-1
 229 328 l 1,9,-1
 248 328 l 1,10,-1
 330 573 l 1,11,-1
 440 573 l 1,12,-1
 332 307 l 1,13,-1
 451 0 l 1,0,-1
EndSplineSet
EndChar

StartChar: Y
Encoding: 89 89 59
Width: 481
GlyphClass: 2
Flags: W
HStem: 0 72<82 319> 184 74<158 319> 553 20G<84 158 319 399>
VStem: 84 74<258 573> 319 80<72 184 258 573>
LayerCount: 2
Fore
SplineSet
399 573 m 1,0,-1
 399 0 l 1,1,-1
 82 0 l 1,2,-1
 82 72 l 1,3,-1
 319 72 l 1,4,-1
 319 184 l 1,5,-1
 84 184 l 1,6,-1
 84 573 l 1,7,-1
 158 573 l 1,8,-1
 158 258 l 1,9,-1
 319 258 l 1,10,-1
 319 573 l 1,11,-1
 399 573 l 1,0,-1
EndSplineSet
EndChar

StartChar: Z
Encoding: 90 90 60
Width: 481
GlyphClass: 2
Flags: W
HStem: 0 72<182 391> 499 74<82 319>
VStem: 82 317<499 573>
LayerCount: 2
Fore
SplineSet
182 72 m 1,0,-1
 391 72 l 1,1,-1
 391 0 l 1,2,-1
 82 0 l 1,3,-1
 82 72 l 1,4,-1
 319 499 l 1,5,-1
 82 499 l 1,6,-1
 82 573 l 1,7,-1
 399 573 l 1,8,-1
 399 496 l 1,9,-1
 182 72 l 1,0,-1
EndSplineSet
EndChar

StartChar: bracketleft
Encoding: 91 91 61
Width: 228
GlyphClass: 2
Flags: W
HStem: -195 82<76 249> 594 82<76 249>
VStem: 0 249<-195 -113 594 676> 0 76<-113 594>
LayerCount: 2
Fore
SplineSet
249 -195 m 1,0,-1
 0 -195 l 1,1,-1
 0 676 l 1,2,-1
 249 676 l 1,3,-1
 249 594 l 1,4,-1
 76 594 l 1,5,-1
 76 -113 l 1,6,-1
 249 -113 l 1,7,-1
 249 -195 l 1,0,-1
EndSplineSet
EndChar

StartChar: backslash
Encoding: 92 92 62
Width: 239
GlyphClass: 2
Flags: W
HStem: 655 20G<-3 75.2417>
VStem: -3 246
LayerCount: 2
Fore
SplineSet
71 675 m 1,0,-1
 243 -136 l 1,1,-1
 169 -153 l 1,2,-1
 -3 658 l 1,3,-1
 71 675 l 1,0,-1
EndSplineSet
EndChar

StartChar: bracketright
Encoding: 93 93 63
Width: 228
GlyphClass: 2
Flags: W
VStem: -20 248
LayerCount: 2
Fore
SplineSet
-20 -195 m 1,0,-1
 228 -195 l 1,1,-1
 228 676 l 1,2,-1
 -20 676 l 1,3,-1
 -20 594 l 1,4,-1
 153 594 l 1,5,-1
 153 -113 l 1,6,-1
 -20 -113 l 1,7,-1
 -20 -195 l 1,0,-1
EndSplineSet
EndChar

StartChar: asciicircum
Encoding: 94 94 64
Width: 481
GlyphClass: 2
Flags: W
HStem: 487 193
VStem: 86 279
LayerCount: 2
Fore
SplineSet
225 680 m 1,0,-1
 365 541 l 1,1,-1
 309 487 l 1,2,-1
 225 580 l 1,3,-1
 141 487 l 1,4,-1
 86 541 l 1,5,-1
 225 680 l 1,0,-1
EndSplineSet
EndChar

StartChar: underscore
Encoding: 95 95 65
Width: 491
GlyphClass: 2
Flags: W
HStem: -113 72
LayerCount: 2
Fore
SplineSet
466 -113 m 1,0,-1
 466 -41 l 1,1,-1
 26 -41 l 1,2,-1
 26 -113 l 1,3,-1
 466 -113 l 1,0,-1
EndSplineSet
EndChar

StartChar: grave
Encoding: 96 96 66
Width: 481
GlyphClass: 2
Flags: W
HStem: 481 195
VStem: 82 260
LayerCount: 2
Fore
SplineSet
137 676 m 1,0,-1
 342 543 l 1,1,-1
 287 481 l 1,2,-1
 82 614 l 1,3,-1
 137 676 l 1,0,-1
EndSplineSet
EndChar

StartChar: a
Encoding: 97 97 67
Width: 481
GlyphClass: 2
Flags: W
HStem: 0 74<158 319> 193 73<158 319> 379 72<82 319>
VStem: 84 74<74 193> 319 80<74 193 266 379>
LayerCount: 2
Fore
SplineSet
319 266 m 1,0,-1
 319 379 l 1,1,-1
 82 379 l 1,2,-1
 82 451 l 1,3,-1
 399 451 l 1,4,-1
 399 0 l 1,5,-1
 84 0 l 1,6,-1
 84 266 l 1,7,-1
 319 266 l 1,0,-1
319 193 m 1,8,-1
 158 193 l 1,9,-1
 158 74 l 1,10,-1
 319 74 l 1,11,-1
 319 193 l 1,8,-1
EndSplineSet
EndChar

StartChar: b
Encoding: 98 98 68
Width: 481
GlyphClass: 2
Flags: W
HStem: 0 74<158 319> 379 72<158 319> 656 20G<82 158>
VStem: 82 76<74 379 451 676> 319 80<75 379>
LayerCount: 2
Fore
SplineSet
158 451 m 1,0,-1
 399 451 l 1,1,-1
 399 0 l 1,2,-1
 82 0 l 1,3,-1
 82 676 l 1,4,-1
 158 676 l 1,5,-1
 158 451 l 1,0,-1
158 74 m 1,6,-1
 319 75 l 1,7,-1
 319 379 l 1,8,-1
 158 379 l 1,9,-1
 158 74 l 1,6,-1
EndSplineSet
EndChar

StartChar: c
Encoding: 99 99 69
Width: 481
GlyphClass: 2
Flags: W
HStem: 0 72<162 391> 376 75<162 324>
VStem: 82 80<72 376> 324 75<287 376>
LayerCount: 2
Fore
SplineSet
324 376 m 1,0,-1
 162 376 l 1,1,-1
 162 72 l 1,2,-1
 391 72 l 1,3,-1
 391 0 l 1,4,-1
 82 0 l 1,5,-1
 82 451 l 1,6,-1
 399 451 l 1,7,-1
 399 287 l 1,8,-1
 324 287 l 1,9,-1
 324 376 l 1,0,-1
EndSplineSet
EndChar

StartChar: d
Encoding: 100 100 70
Width: 481
GlyphClass: 2
Flags: W
HStem: 0 75<162 324> 379 72<162 324> 656 20G<324 399>
VStem: 82 80<75 379> 324 75<74 379 451 676>
LayerCount: 2
Fore
SplineSet
324 451 m 1,0,-1
 324 676 l 1,1,-1
 399 676 l 1,2,-1
 399 0 l 1,3,-1
 82 0 l 1,4,-1
 82 451 l 1,5,-1
 324 451 l 1,0,-1
324 74 m 1,6,-1
 324 379 l 1,7,-1
 162 379 l 1,8,-1
 162 75 l 1,9,-1
 324 74 l 1,6,-1
EndSplineSet
EndChar

StartChar: e
Encoding: 101 101 71
Width: 481
GlyphClass: 2
Flags: W
HStem: 0 72<162 399> 184 74<162 324> 377 74<162 324>
VStem: 82 80<72 184 258 377> 324 73<258 377>
LayerCount: 2
Fore
SplineSet
162 184 m 1,0,-1
 162 72 l 1,1,-1
 399 72 l 1,2,-1
 399 0 l 1,3,-1
 82 0 l 1,4,-1
 82 451 l 1,5,-1
 397 451 l 1,6,-1
 397 184 l 1,7,-1
 162 184 l 1,0,-1
162 258 m 1,8,-1
 324 258 l 1,9,-1
 324 377 l 1,10,-1
 162 377 l 1,11,-1
 162 258 l 1,8,-1
EndSplineSet
EndChar

StartChar: f
Encoding: 102 102 72
Width: 481
GlyphClass: 2
Flags: W
HStem: 0 21G<180 256> 379 71<82 180 256 399> 574 71<256 399>
VStem: 180 76<0 379 450 574>
LayerCount: 2
Fore
SplineSet
82 450 m 1,0,-1
 180 450 l 1,1,-1
 180 645 l 1,2,-1
 399 645 l 1,3,-1
 399 574 l 1,4,-1
 256 574 l 1,5,-1
 256 450 l 1,6,-1
 399 450 l 1,7,-1
 399 379 l 1,8,-1
 256 379 l 1,9,-1
 256 0 l 1,10,-1
 180 0 l 1,11,-1
 180 379 l 1,12,-1
 82 379 l 1,13,-1
 82 450 l 1,0,-1
EndSplineSet
EndChar

StartChar: g
Encoding: 103 103 73
Width: 481
GlyphClass: 2
Flags: W
LayerCount: 2
Fore
SplineSet
319 0 m 1,0,-1
 319 -113 l 1,1,-1
 82 -113 l 1,2,-1
 82 -184 l 1,3,-1
 399 -184 l 1,4,-1
 399 451 l 1,5,-1
 84 451 l 1,6,-1
 84 0 l 1,7,-1
 319 0 l 1,0,-1
319 74 m 1,8,-1
 158 74 l 1,9,-1
 158 377 l 1,10,-1
 319 377 l 1,11,-1
 319 74 l 1,8,-1
EndSplineSet
EndChar

StartChar: h
Encoding: 104 104 74
Width: 481
GlyphClass: 2
Flags: W
LayerCount: 2
Fore
SplineSet
399 0 m 1,0,-1
 399 451 l 1,1,-1
 158 451 l 1,2,-1
 158 676 l 1,3,-1
 82 676 l 1,4,-1
 82 0 l 1,5,-1
 158 0 l 1,6,-1
 158 379 l 1,7,-1
 319 379 l 1,8,-1
 319 0 l 1,9,-1
 399 0 l 1,0,-1
EndSplineSet
EndChar

StartChar: i
Encoding: 105 105 75
Width: 239
GlyphClass: 2
Flags: W
VStem: 82 76
LayerCount: 2
Fore
SplineSet
82 450 m 1,0,-1
 82 0 l 1,1,-1
 158 0 l 1,2,-1
 158 451 l 1,3,-1
 82 450 l 1,0,-1
82 676 m 1,4,-1
 82 543 l 1,5,-1
 158 543 l 1,6,-1
 158 676 l 1,7,-1
 82 676 l 1,4,-1
EndSplineSet
EndChar

StartChar: j
Encoding: 106 106 76
Width: 238
GlyphClass: 2
Flags: W
HStem: -154 76<0 81> 430 20G<81 157> 430 20G<81 157> 543 133<81 157>
VStem: 0 157<-154 -78> 81 76<-78 450 543 676>
LayerCount: 2
Fore
SplineSet
81 676 m 1,0,-1
 157 676 l 1,1,-1
 157 543 l 1,2,-1
 81 543 l 1,3,-1
 81 676 l 1,0,-1
0 -154 m 1,4,-1
 0 -78 l 1,5,-1
 81 -78 l 1,6,-1
 81 450 l 1,7,-1
 157 450 l 1,8,-1
 157 -154 l 1,9,-1
 0 -154 l 1,4,-1
EndSplineSet
EndChar

StartChar: k
Encoding: 107 107 77
Width: 481
GlyphClass: 2
Flags: W
LayerCount: 2
Fore
SplineSet
430 0 m 1,0,-1
 230 233 l 1,1,-1
 420 450 l 1,2,-1
 311 450 l 1,3,-1
 158 259 l 1,4,-1
 158 676 l 1,5,-1
 82 676 l 1,6,-1
 82 0 l 1,7,-1
 158 0 l 1,8,-1
 158 198 l 1,9,-1
 173 198 l 1,10,-1
 312 0 l 1,11,-1
 430 0 l 1,0,-1
EndSplineSet
EndChar

StartChar: l
Encoding: 108 108 78
Width: 239
GlyphClass: 2
Flags: W
VStem: 82 76
LayerCount: 2
Fore
SplineSet
82 676 m 1,0,-1
 82 0 l 1,1,-1
 158 0 l 1,2,-1
 158 676 l 1,3,-1
 82 676 l 1,0,-1
EndSplineSet
EndChar

StartChar: m
Encoding: 109 109 79
Width: 716
GlyphClass: 2
Flags: W
HStem: 0 21G<82 158 317 399 555 635> 379 72<158 317 399 555>
VStem: 82 76<0 379> 317 82<0 379> 555 80<0 379>
LayerCount: 2
Fore
SplineSet
399 0 m 1,0,-1
 317 0 l 1,1,-1
 317 379 l 1,2,-1
 158 379 l 1,3,-1
 158 0 l 1,4,-1
 82 0 l 1,5,-1
 82 451 l 1,6,-1
 635 451 l 1,7,-1
 635 0 l 1,8,-1
 555 0 l 1,9,-1
 555 379 l 1,10,-1
 399 379 l 1,11,-1
 399 0 l 1,0,-1
EndSplineSet
EndChar

StartChar: n
Encoding: 110 110 80
Width: 481
GlyphClass: 2
Flags: W
VStem: 82 317
LayerCount: 2
Fore
SplineSet
399 0 m 1,0,-1
 399 451 l 1,1,-1
 82 451 l 1,2,-1
 82 0 l 1,3,-1
 158 0 l 1,4,-1
 158 379 l 1,5,-1
 319 379 l 1,6,-1
 319 0 l 1,7,-1
 399 0 l 1,0,-1
EndSplineSet
EndChar

StartChar: o
Encoding: 111 111 81
Width: 481
GlyphClass: 2
Flags: W
HStem: 0 72<162 324> 376 75<162 324>
VStem: 82 80<72 376> 324 75<72 377>
LayerCount: 2
Fore
SplineSet
82 0 m 1,0,-1
 82 451 l 1,1,-1
 399 451 l 1,2,-1
 399 0 l 1,3,-1
 82 0 l 1,0,-1
324 377 m 1,4,-1
 162 376 l 1,5,-1
 162 72 l 1,6,-1
 324 72 l 1,7,-1
 324 377 l 1,4,-1
EndSplineSet
EndChar

StartChar: p
Encoding: 112 112 82
Width: 481
GlyphClass: 2
Flags: W
VStem: 82 317
LayerCount: 2
Fore
SplineSet
158 0 m 1,0,-1
 399 0 l 1,1,-1
 399 451 l 1,2,-1
 82 451 l 1,3,-1
 82 -225 l 1,4,-1
 158 -225 l 1,5,-1
 158 0 l 1,0,-1
158 377 m 1,6,-1
 319 376 l 1,7,-1
 319 72 l 1,8,-1
 158 72 l 1,9,-1
 158 377 l 1,6,-1
EndSplineSet
EndChar

StartChar: q
Encoding: 113 113 83
Width: 481
GlyphClass: 2
Flags: W
HStem: -225 21G<324 399> 0 72<162 324> 376 75<162 324>
VStem: 82 80<72 376> 324 75<-225 0 72 377>
LayerCount: 2
Fore
SplineSet
324 0 m 1,0,-1
 82 0 l 1,1,-1
 82 451 l 1,2,-1
 399 451 l 1,3,-1
 399 -225 l 1,4,-1
 324 -225 l 1,5,-1
 324 0 l 1,0,-1
324 377 m 1,6,-1
 162 376 l 1,7,-1
 162 72 l 1,8,-1
 324 72 l 1,9,-1
 324 377 l 1,6,-1
EndSplineSet
EndChar

StartChar: r
Encoding: 114 114 84
Width: 409
GlyphClass: 2
Flags: W
HStem: 0 21G<82 162> 376 75<162 272>
VStem: 82 80<0 376> 272 76<287 377>
LayerCount: 2
Fore
SplineSet
272 377 m 1,0,-1
 162 376 l 1,1,-1
 162 0 l 1,2,-1
 82 0 l 1,3,-1
 82 451 l 1,4,-1
 348 451 l 1,5,-1
 348 287 l 1,6,-1
 272 287 l 1,7,-1
 272 377 l 1,0,-1
EndSplineSet
EndChar

StartChar: s
Encoding: 115 115 85
Width: 481
GlyphClass: 2
Flags: W
LayerCount: 2
Fore
SplineSet
158 75 m 1,0,-1
 158 113 l 1,1,-1
 82 113 l 1,2,-1
 82 0 l 1,3,-1
 397 1 l 1,4,-1
 397 232 l 1,5,-1
 162 287 l 1,6,-1
 162 376 l 1,7,-1
 324 376 l 1,8,-1
 324 287 l 1,9,-1
 399 287 l 1,10,-1
 399 451 l 1,11,-1
 82 451 l 1,12,-1
 82 215 l 1,13,-1
 319 160 l 1,14,-1
 319 75 l 1,15,-1
 158 75 l 1,0,-1
EndSplineSet
EndChar

StartChar: t
Encoding: 116 116 86
Width: 440
GlyphClass: 2
Flags: W
HStem: 0 72<250 358> 379 72<82 174 250 358>
VStem: 174 76<72 379 451 584>
LayerCount: 2
Fore
SplineSet
358 0 m 1,0,-1
 174 0 l 1,1,-1
 174 379 l 1,2,-1
 82 379 l 1,3,-1
 82 451 l 1,4,-1
 174 451 l 1,5,-1
 174 584 l 1,6,-1
 250 584 l 1,7,-1
 250 451 l 1,8,-1
 358 451 l 1,9,-1
 358 379 l 1,10,-1
 250 379 l 1,11,-1
 250 72 l 1,12,-1
 358 72 l 1,13,-1
 358 0 l 1,0,-1
EndSplineSet
EndChar

StartChar: u
Encoding: 117 117 87
Width: 481
GlyphClass: 2
Flags: W
HStem: 0 72<158 319> 431 20G<82 158 319 399> 431 20G<82 158 319 399>
VStem: 82 76<72 451> 319 80<72 451>
LayerCount: 2
Fore
SplineSet
399 451 m 1,0,-1
 399 0 l 1,1,-1
 82 0 l 1,2,-1
 82 451 l 1,3,-1
 158 451 l 1,4,-1
 158 72 l 1,5,-1
 319 72 l 1,6,-1
 319 451 l 1,7,-1
 399 451 l 1,0,-1
EndSplineSet
EndChar

StartChar: v
Encoding: 118 118 88
Width: 450
GlyphClass: 2
Flags: W
HStem: 0 72<215 244> 431 20G<31 137.327 321.673 420> 431 20G<31 137.327 321.673 420>
LayerCount: 2
Fore
SplineSet
420 451 m 1,0,-1
 297 0 l 1,1,-1
 154 0 l 1,2,-1
 31 451 l 1,3,-1
 133 451 l 1,4,-1
 215 72 l 1,5,-1
 244 72 l 1,6,-1
 326 451 l 1,7,-1
 420 451 l 1,0,-1
EndSplineSet
EndChar

StartChar: w
Encoding: 119 119 89
Width: 716
GlyphClass: 2
Flags: W
HStem: 0 72<162 317 399 559> 431 20G<82 162 317 399 559 635> 431 20G<82 162 317 399 559 635>
VStem: 82 80<72 451> 317 82<72 451> 559 76<72 451>
LayerCount: 2
Fore
SplineSet
317 451 m 1,0,-1
 399 451 l 1,1,-1
 399 72 l 1,2,-1
 559 72 l 1,3,-1
 559 451 l 1,4,-1
 635 451 l 1,5,-1
 635 0 l 1,6,-1
 82 0 l 1,7,-1
 82 451 l 1,8,-1
 162 451 l 1,9,-1
 162 72 l 1,10,-1
 317 72 l 1,11,-1
 317 451 l 1,0,-1
EndSplineSet
EndChar

StartChar: x
Encoding: 120 120 90
Width: 481
GlyphClass: 2
Flags: W
HStem: 0 21G<31 138.087 338.913 451> 431 20G<41 146.946 330.054 440> 431 20G<41 146.946 330.054 440>
LayerCount: 2
Fore
SplineSet
451 0 m 1,0,-1
 350 0 l 1,1,-1
 248 184 l 1,2,-1
 229 184 l 1,3,-1
 127 0 l 1,4,-1
 31 0 l 1,5,-1
 160 236 l 1,6,-1
 41 451 l 1,7,-1
 137 451 l 1,8,-1
 229 266 l 1,9,-1
 248 266 l 1,10,-1
 340 451 l 1,11,-1
 440 451 l 1,12,-1
 322 236 l 1,13,-1
 451 0 l 1,0,-1
EndSplineSet
EndChar

StartChar: y
Encoding: 121 121 91
Width: 481
GlyphClass: 2
Flags: W
HStem: -184 71<82 319> 0 74<158 319> 431 20G<84 158 319 399> 431 20G<84 158 319 399>
VStem: 84 74<74 451> 319 80<-113 0 74 451>
LayerCount: 2
Fore
SplineSet
399 451 m 1,0,-1
 399 -184 l 1,1,-1
 82 -184 l 1,2,-1
 82 -113 l 1,3,-1
 319 -113 l 1,4,-1
 319 0 l 1,5,-1
 84 0 l 1,6,-1
 84 451 l 1,7,-1
 158 451 l 1,8,-1
 158 74 l 1,9,-1
 319 74 l 1,10,-1
 319 451 l 1,11,-1
 399 451 l 1,0,-1
EndSplineSet
EndChar

StartChar: z
Encoding: 122 122 92
Width: 481
GlyphClass: 2
Flags: W
HStem: 0 72<182 391> 376 75<82 319>
VStem: 82 317<376 451>
LayerCount: 2
Fore
SplineSet
182 72 m 1,0,-1
 391 72 l 1,1,-1
 391 0 l 1,2,-1
 82 0 l 1,3,-1
 82 72 l 1,4,-1
 319 376 l 1,5,-1
 82 376 l 1,6,-1
 82 451 l 1,7,-1
 399 451 l 1,8,-1
 399 373 l 1,9,-1
 182 72 l 1,0,-1
EndSplineSet
EndChar

StartChar: braceleft
Encoding: 123 123 93
Width: 338
GlyphClass: 2
Flags: W
HStem: -184 82<186 359> 215 81<0 111> 594 82<186 359>
VStem: 111 248<-184 -102 594 676> 111 75<-102 215 296 594>
LayerCount: 2
Fore
SplineSet
0 296 m 1,0,-1
 111 296 l 1,1,-1
 111 676 l 1,2,-1
 359 676 l 1,3,-1
 359 594 l 1,4,-1
 186 594 l 1,5,-1
 186 -102 l 1,6,-1
 359 -102 l 1,7,-1
 359 -184 l 1,8,-1
 111 -184 l 1,9,-1
 111 215 l 1,10,-1
 0 215 l 1,11,-1
 0 296 l 1,0,-1
EndSplineSet
EndChar

StartChar: bar
Encoding: 124 124 94
Width: 239
GlyphClass: 2
Flags: W
VStem: 82 76
LayerCount: 2
Fore
SplineSet
82 676 m 1,0,-1
 82 -154 l 1,1,-1
 158 -154 l 1,2,-1
 158 676 l 1,3,-1
 82 676 l 1,0,-1
EndSplineSet
EndChar

StartChar: braceright
Encoding: 125 125 95
Width: 338
GlyphClass: 2
Flags: W
LayerCount: 2
Fore
SplineSet
339 296 m 1,0,-1
 228 296 l 1,1,-1
 228 676 l 1,2,-1
 -20 676 l 1,3,-1
 -20 594 l 1,4,-1
 153 594 l 1,5,-1
 153 -102 l 1,6,-1
 -20 -102 l 1,7,-1
 -20 -184 l 1,8,-1
 228 -184 l 1,9,-1
 228 215 l 1,10,-1
 339 215 l 1,11,-1
 339 296 l 1,0,-1
EndSplineSet
EndChar

StartChar: asciitilde
Encoding: 126 126 96
Width: 512
GlyphClass: 2
Flags: W
HStem: 210 184
LayerCount: 2
Fore
SplineSet
116 318 m 1,0,-1
 216 318 l 1,1,-1
 216 210 l 1,2,-1
 470 210 l 1,3,-1
 470 394 l 1,4,-1
 392 394 l 1,5,-1
 392 291 l 1,6,-1
 297 291 l 1,7,-1
 297 394 l 1,8,-1
 41 394 l 1,9,-1
 41 210 l 1,10,-1
 116 210 l 1,11,-1
 116 318 l 1,0,-1
EndSplineSet
EndChar

StartChar: exclamdown
Encoding: 161 161 98
Width: 239
GlyphClass: 2
Flags: W
VStem: 82 76
LayerCount: 2
Fore
SplineSet
82 450 m 1,0,-1
 82 0 l 1,1,-1
 158 0 l 1,2,-1
 158 451 l 1,3,-1
 82 450 l 1,0,-1
82 676 m 1,4,-1
 82 543 l 1,5,-1
 158 543 l 1,6,-1
 158 676 l 1,7,-1
 82 676 l 1,4,-1
EndSplineSet
EndChar

StartChar: cent
Encoding: 162 162 99
Width: 481
GlyphClass: 2
Flags: W
HStem: 0 72<162 210 282 391> 376 75<162 210 282 324>
VStem: 82 80<72 376> 210 72<-82 0 72 376 451 563> 324 75<287 376>
LayerCount: 2
Fore
SplineSet
210 376 m 1,0,-1
 162 376 l 1,1,-1
 162 72 l 1,2,-1
 210 72 l 1,3,-1
 210 376 l 1,0,-1
399 287 m 1,4,-1
 324 287 l 1,5,-1
 324 376 l 1,6,-1
 282 376 l 1,7,-1
 282 72 l 1,8,-1
 391 72 l 1,9,-1
 391 0 l 1,10,-1
 282 0 l 1,11,-1
 282 -82 l 1,12,-1
 210 -82 l 1,13,-1
 210 0 l 1,14,-1
 82 0 l 1,15,-1
 82 451 l 1,16,-1
 210 451 l 1,17,-1
 210 563 l 1,18,-1
 282 563 l 1,19,-1
 282 451 l 1,20,-1
 399 451 l 1,21,-1
 399 287 l 1,4,-1
EndSplineSet
EndChar

StartChar: sterling
Encoding: 163 163 100
Width: 481
GlyphClass: 2
Flags: W
HStem: 0 71<82 180 256 404> 205 70<82 180 256 399> 380 71<256 399>
VStem: 180 76<71 205 275 380>
LayerCount: 2
Fore
SplineSet
82 71 m 1,0,-1
 180 71 l 1,1,-1
 180 205 l 1,2,-1
 82 205 l 1,3,-1
 82 275 l 1,4,-1
 180 275 l 1,5,-1
 180 451 l 1,6,-1
 399 451 l 1,7,-1
 399 380 l 1,8,-1
 256 380 l 1,9,-1
 256 275 l 1,10,-1
 399 275 l 1,11,-1
 399 205 l 1,12,-1
 256 205 l 1,13,-1
 256 71 l 1,14,-1
 404 71 l 1,15,-1
 404 0 l 1,16,-1
 82 0 l 1,17,-1
 82 71 l 1,0,-1
EndSplineSet
EndChar

StartChar: yen
Encoding: 165 165 101
Width: 512
GlyphClass: 2
Flags: W
HStem: 0 72<92 330> 123 72<36 330 410 476> 246 71<36 330 410 476> 389 74<168 330> 553 20G<94 168 330 410>
VStem: 94 74<463 573> 330 80<72 123 195 246 317 389 463 573>
LayerCount: 2
Fore
SplineSet
476 123 m 1,0,-1
 410 123 l 1,1,-1
 410 0 l 1,2,-1
 92 0 l 1,3,-1
 92 72 l 1,4,-1
 330 72 l 1,5,-1
 330 123 l 1,6,-1
 36 123 l 1,7,-1
 36 195 l 1,8,-1
 330 195 l 1,9,-1
 330 246 l 1,10,-1
 36 246 l 1,11,-1
 36 317 l 1,12,-1
 330 317 l 1,13,-1
 330 389 l 1,14,-1
 94 389 l 1,15,-1
 94 573 l 1,16,-1
 168 573 l 1,17,-1
 168 463 l 1,18,-1
 330 463 l 1,19,-1
 330 573 l 1,20,-1
 410 573 l 1,21,-1
 410 317 l 1,22,-1
 476 317 l 1,23,-1
 476 246 l 1,24,-1
 410 246 l 1,25,-1
 410 195 l 1,26,-1
 476 195 l 1,27,-1
 476 123 l 1,0,-1
EndSplineSet
EndChar

StartChar: brokenbar
Encoding: 166 166 102
Width: 239
GlyphClass: 2
Flags: W
VStem: 82 76
LayerCount: 2
Fore
SplineSet
82 205 m 1,0,-1
 82 -143 l 1,1,-1
 158 -143 l 1,2,-1
 158 205 l 1,3,-1
 82 205 l 1,0,-1
82 676 m 1,4,-1
 82 328 l 1,5,-1
 158 328 l 1,6,-1
 158 676 l 1,7,-1
 82 676 l 1,4,-1
EndSplineSet
EndChar

StartChar: section
Encoding: 167 167 103
Width: 373
GlyphClass: 2
Flags: W
HStem: -13 74<82 132> -13 49<132 239> 345 109<242 292> 404 50<134 242>
VStem: 82 52<36 61 182 247 345 404> 239 51<36 92 194 258 345 404>
LayerCount: 2
Fore
SplineSet
239 258 m 1,0,-1
 186 271 l 1,1,-1
 134 247 l 1,2,-1
 134 182 l 1,3,-1
 179 171 l 1,4,-1
 239 194 l 1,5,-1
 239 258 l 1,0,-1
290 179 m 1,6,-1
 221 157 l 1,7,-1
 290 140 l 1,8,-1
 290 -12 l 1,9,-1
 82 -13 l 1,10,-1
 82 61 l 1,11,-1
 132 61 l 1,12,-1
 132 36 l 1,13,-1
 239 36 l 1,14,-1
 239 92 l 1,15,-1
 82 129 l 1,16,-1
 82 262 l 1,17,-1
 140 285 l 1,18,-1
 82 298 l 1,19,-1
 82 454 l 1,20,-1
 292 454 l 1,21,-1
 292 345 l 1,22,-1
 242 345 l 1,23,-1
 242 404 l 1,24,-1
 134 404 l 1,25,-1
 134 345 l 1,26,-1
 290 309 l 1,27,-1
 290 179 l 1,6,-1
EndSplineSet
EndChar

StartChar: dieresis
Encoding: 168 168 104
Width: 481
GlyphClass: 2
Flags: W
HStem: 543 133
LayerCount: 2
Fore
SplineSet
82 676 m 1,0,-1
 82 543 l 1,1,-1
 158 543 l 1,2,-1
 158 676 l 1,3,-1
 82 676 l 1,0,-1
266 676 m 1,4,-1
 266 543 l 1,5,-1
 342 543 l 1,6,-1
 342 676 l 1,7,-1
 266 676 l 1,4,-1
EndSplineSet
EndChar

StartChar: copyright
Encoding: 169 169 105
Width: 665
GlyphClass: 2
Flags: W
HStem: -76 78<158 504> 102 72<305 422> 355 75<305 365> 521 73<158 504>
VStem: 82 76<2 521> 236 69<174 355> 365 65<287 355> 504 80<2 521>
LayerCount: 2
Fore
SplineSet
365 355 m 1,0,-1
 305 355 l 1,1,-1
 305 174 l 1,2,-1
 422 174 l 1,3,-1
 422 102 l 1,4,-1
 236 102 l 1,5,-1
 236 430 l 1,6,-1
 430 430 l 1,7,-1
 430 287 l 1,8,-1
 365 287 l 1,9,-1
 365 355 l 1,0,-1
158 2 m 1,10,-1
 504 2 l 1,11,-1
 504 521 l 1,12,-1
 158 521 l 1,13,-1
 158 2 l 1,10,-1
82 -76 m 1,14,-1
 82 594 l 1,15,-1
 584 594 l 1,16,-1
 584 -76 l 1,17,-1
 82 -76 l 1,14,-1
EndSplineSet
EndChar

StartChar: guillemotleft
Encoding: 171 171 106
Width: 593
GlyphClass: 2
Flags: W
LayerCount: 2
Fore
SplineSet
51 236 m 1,0,-1
 283 467 l 1,1,-1
 338 410 l 1,2,-1
 167 236 l 1,3,-1
 338 61 l 1,4,-1
 283 4 l 1,5,-1
 51 236 l 1,0,-1
256 236 m 1,6,-1
 487 467 l 1,7,-1
 543 410 l 1,8,-1
 372 236 l 1,9,-1
 543 61 l 1,10,-1
 487 4 l 1,11,-1
 256 236 l 1,6,-1
EndSplineSet
EndChar

StartChar: registered
Encoding: 174 174 107
Width: 665
GlyphClass: 2
Flags: W
HStem: -76 78<158 504> 236 51<301 324> 369 61<301 360> 521 73<158 504>
VStem: 82 76<2 521> 236 65<102 236 287 369> 360 60<287 369> 504 80<2 521>
LayerCount: 2
Fore
SplineSet
158 2 m 1,0,-1
 504 2 l 1,1,-1
 504 521 l 1,2,-1
 158 521 l 1,3,-1
 158 2 l 1,0,-1
82 -76 m 1,4,-1
 82 594 l 1,5,-1
 584 594 l 1,6,-1
 584 -76 l 1,7,-1
 82 -76 l 1,4,-1
471 102 m 1,8,-1
 391 102 l 1,9,-1
 324 236 l 1,10,-1
 301 236 l 1,11,-1
 301 102 l 1,12,-1
 236 102 l 1,13,-1
 236 430 l 1,14,-1
 420 430 l 1,15,-1
 420 236 l 1,16,-1
 383 236 l 1,17,-1
 471 102 l 1,8,-1
360 287 m 1,18,-1
 360 369 l 1,19,-1
 301 369 l 1,20,-1
 301 287 l 1,21,-1
 360 287 l 1,18,-1
EndSplineSet
EndChar

StartChar: plusminus
Encoding: 177 177 108
Width: 491
GlyphClass: 2
Flags: W
HStem: 0 21G<200 282> 205 71<26 200 282 466> 431 20G<200 282> 431 20G<200 282>
VStem: 200 82<0 205 276 451>
LayerCount: 2
Fore
SplineSet
466 -123 m 1,0,-1
 466 -51 l 1,1,-1
 26 -51 l 1,2,-1
 26 -123 l 1,3,-1
 466 -123 l 1,0,-1
200 0 m 1,4,-1
 200 205 l 1,5,-1
 26 205 l 1,6,-1
 26 276 l 1,7,-1
 200 276 l 1,8,-1
 200 451 l 1,9,-1
 282 451 l 1,10,-1
 282 276 l 1,11,-1
 466 276 l 1,12,-1
 466 205 l 1,13,-1
 282 205 l 1,14,-1
 282 0 l 1,15,-1
 200 0 l 1,4,-1
EndSplineSet
EndChar

StartChar: acute
Encoding: 180 180 109
Width: 481
GlyphClass: 2
Flags: W
LayerCount: 2
Fore
SplineSet
287 676 m 1,0,-1
 82 543 l 1,1,-1
 137 481 l 1,2,-1
 342 614 l 1,3,-1
 287 676 l 1,0,-1
EndSplineSet
EndChar

StartChar: paragraph
Encoding: 182 182 110
Width: 409
GlyphClass: 2
Flags: W
VStem: 82 246
LayerCount: 2
Fore
SplineSet
82 256 m 1,0,-1
 251 256 l 1,1,-1
 251 0 l 1,2,-1
 328 0 l 1,3,-1
 328 573 l 1,4,-1
 82 573 l 1,5,-1
 82 256 l 1,0,-1
162 328 m 1,6,-1
 162 502 l 1,7,-1
 251 502 l 1,8,-1
 251 328 l 1,9,-1
 162 328 l 1,6,-1
EndSplineSet
EndChar

StartChar: cedilla
Encoding: 184 184 111
Width: 481
GlyphClass: 2
Flags: W
HStem: -174 205<256 281>
VStem: 195 137
LayerCount: 2
Fore
SplineSet
195 -174 m 1,0,-1
 256 31 l 1,1,-1
 332 31 l 1,2,-1
 281 -174 l 1,3,-1
 195 -174 l 1,0,-1
EndSplineSet
EndChar

StartChar: guillemotright
Encoding: 187 187 112
Width: 593
GlyphClass: 2
Flags: W
LayerCount: 2
Fore
SplineSet
543 236 m 1,0,-1
 311 467 l 1,1,-1
 256 410 l 1,2,-1
 427 236 l 1,3,-1
 256 61 l 1,4,-1
 311 4 l 1,5,-1
 543 236 l 1,0,-1
338 236 m 1,6,-1
 106 467 l 1,7,-1
 51 410 l 1,8,-1
 222 236 l 1,9,-1
 51 61 l 1,10,-1
 106 4 l 1,11,-1
 338 236 l 1,6,-1
EndSplineSet
EndChar

StartChar: questiondown
Encoding: 191 191 113
Width: 481
GlyphClass: 2
Flags: W
HStem: 0 74<155 396> 278 70<155 216>
VStem: 81 74<74 278> 216 78<348 440>
LayerCount: 2
Fore
SplineSet
396 0 m 1,0,-1
 81 0 l 1,1,-1
 81 348 l 1,2,-1
 216 348 l 1,3,-1
 216 440 l 1,4,-1
 294 440 l 1,5,-1
 294 278 l 1,6,-1
 155 278 l 1,7,-1
 155 74 l 1,8,-1
 397 74 l 1,9,-1
 396 0 l 1,0,-1
294 512 m 1,10,-1
 294 635 l 1,11,-1
 218 635 l 1,12,-1
 218 512 l 1,13,-1
 294 512 l 1,10,-1
EndSplineSet
EndChar

StartChar: Agrave
Encoding: 192 192 114
Width: 481
GlyphClass: 2
Flags: W
HStem: 0 21G<82 158 319 399> 256 72<158 319> 502 71<158 319>
VStem: 82 76<0 256 328 502> 319 80<0 256 328 502>
LayerCount: 2
Fore
SplineSet
158 502 m 1,0,-1
 158 328 l 1,1,-1
 319 328 l 1,2,-1
 319 502 l 1,3,-1
 158 502 l 1,0,-1
399 0 m 1,4,-1
 319 0 l 1,5,-1
 319 256 l 1,6,-1
 158 256 l 1,7,-1
 158 0 l 1,8,-1
 82 0 l 1,9,-1
 82 573 l 1,10,-1
 399 573 l 1,11,-1
 399 0 l 1,4,-1
137 799 m 1,12,-1
 342 666 l 1,13,-1
 287 604 l 1,14,-1
 82 737 l 1,15,-1
 137 799 l 1,12,-1
EndSplineSet
EndChar

StartChar: Aacute
Encoding: 193 193 115
Width: 481
GlyphClass: 2
Flags: W
HStem: 0 21G<82 158 319 399> 256 72<158 319> 502 71<158 319>
VStem: 82 76<0 256 328 502> 319 80<0 256 328 502>
LayerCount: 2
Fore
SplineSet
158 502 m 1,0,-1
 158 328 l 1,1,-1
 319 328 l 1,2,-1
 319 502 l 1,3,-1
 158 502 l 1,0,-1
399 0 m 1,4,-1
 319 0 l 1,5,-1
 319 256 l 1,6,-1
 158 256 l 1,7,-1
 158 0 l 1,8,-1
 82 0 l 1,9,-1
 82 573 l 1,10,-1
 399 573 l 1,11,-1
 399 0 l 1,4,-1
287 809 m 1,12,-1
 82 676 l 1,13,-1
 137 614 l 1,14,-1
 342 748 l 1,15,-1
 287 809 l 1,12,-1
EndSplineSet
EndChar

StartChar: Acircumflex
Encoding: 194 194 116
Width: 481
GlyphClass: 2
Flags: W
HStem: 0 21G<82 158 319 399> 256 72<158 319> 502 71<158 319>
VStem: 82 76<0 256 328 502> 319 80<0 256 328 502>
LayerCount: 2
Fore
SplineSet
158 502 m 1,0,-1
 158 328 l 1,1,-1
 319 328 l 1,2,-1
 319 502 l 1,3,-1
 158 502 l 1,0,-1
399 0 m 1,4,-1
 319 0 l 1,5,-1
 319 256 l 1,6,-1
 158 256 l 1,7,-1
 158 0 l 1,8,-1
 82 0 l 1,9,-1
 82 573 l 1,10,-1
 399 573 l 1,11,-1
 399 0 l 1,4,-1
225 803 m 1,12,-1
 365 664 l 1,13,-1
 309 610 l 1,14,-1
 225 702 l 1,15,-1
 141 610 l 1,16,-1
 86 664 l 1,17,-1
 225 803 l 1,12,-1
EndSplineSet
EndChar

StartChar: Atilde
Encoding: 195 195 117
Width: 481
GlyphClass: 2
Flags: W
HStem: 0 21G<82 158 319 399> 256 72<158 319> 502 71<158 319>
VStem: 82 76<0 256 328 502> 319 80<0 256 328 502>
LayerCount: 2
Fore
SplineSet
133 725 m 1,0,-1
 214 725 l 1,1,-1
 214 638 l 1,2,-1
 417 638 l 1,3,-1
 417 785 l 1,4,-1
 354 785 l 1,5,-1
 354 702 l 1,6,-1
 279 702 l 1,7,-1
 279 785 l 1,8,-1
 74 785 l 1,9,-1
 74 638 l 1,10,-1
 133 638 l 1,11,-1
 133 725 l 1,0,-1
158 502 m 1,12,-1
 158 328 l 1,13,-1
 319 328 l 1,14,-1
 319 502 l 1,15,-1
 158 502 l 1,12,-1
399 0 m 1,16,-1
 319 0 l 1,17,-1
 319 256 l 1,18,-1
 158 256 l 1,19,-1
 158 0 l 1,20,-1
 82 0 l 1,21,-1
 82 573 l 1,22,-1
 399 573 l 1,23,-1
 399 0 l 1,16,-1
EndSplineSet
EndChar

StartChar: Adieresis
Encoding: 196 196 118
Width: 481
GlyphClass: 2
Flags: W
HStem: 0 21G<82 158 319 399> 256 72<158 319> 502 71<158 319>
VStem: 82 76<0 256 328 502> 319 80<0 256 328 502>
LayerCount: 2
Fore
SplineSet
158 502 m 1,0,-1
 158 328 l 1,1,-1
 319 328 l 1,2,-1
 319 502 l 1,3,-1
 158 502 l 1,0,-1
399 0 m 1,4,-1
 319 0 l 1,5,-1
 319 256 l 1,6,-1
 158 256 l 1,7,-1
 158 0 l 1,8,-1
 82 0 l 1,9,-1
 82 573 l 1,10,-1
 399 573 l 1,11,-1
 399 0 l 1,4,-1
82 758 m 1,12,-1
 82 625 l 1,13,-1
 158 625 l 1,14,-1
 158 758 l 1,15,-1
 82 758 l 1,12,-1
266 758 m 1,16,-1
 266 625 l 1,17,-1
 342 625 l 1,18,-1
 342 758 l 1,19,-1
 266 758 l 1,16,-1
EndSplineSet
EndChar

StartChar: Aring
Encoding: 197 197 119
Width: 481
GlyphClass: 2
Flags: W
HStem: 0 21G<82 158 319 399> 256 72<158 319> 502 71<158 319> 612 43<142 219> 776 45<142 219>
VStem: 82 76<0 256 328 502> 84 58<655 776> 219 55<655 777> 319 80<0 256 328 502>
LayerCount: 2
Fore
SplineSet
158 502 m 1,0,-1
 158 328 l 1,1,-1
 319 328 l 1,2,-1
 319 502 l 1,3,-1
 158 502 l 1,0,-1
399 0 m 1,4,-1
 319 0 l 1,5,-1
 319 256 l 1,6,-1
 158 256 l 1,7,-1
 158 0 l 1,8,-1
 82 0 l 1,9,-1
 82 573 l 1,10,-1
 399 573 l 1,11,-1
 399 0 l 1,4,-1
84 612 m 1,12,-1
 84 821 l 1,13,-1
 274 821 l 1,14,-1
 274 612 l 1,15,-1
 84 612 l 1,12,-1
219 777 m 1,16,-1
 142 776 l 1,17,-1
 142 655 l 1,18,-1
 219 655 l 1,19,-1
 219 777 l 1,16,-1
EndSplineSet
EndChar

StartChar: AE
Encoding: 198 198 120
Width: 727
GlyphClass: 2
Flags: W
HStem: 0 78<403 645> 255 72<158 319 403 645> 502 72<158 319 403 645>
VStem: 82 76<0 255 327 502> 319 84<78 255 327 502>
LayerCount: 2
Fore
SplineSet
319 0 m 1,0,-1
 319 255 l 1,1,-1
 158 255 l 1,2,-1
 158 0 l 1,3,-1
 82 0 l 1,4,-1
 82 573 l 1,5,6
 268 573 268 573 645 574 c 1,7,-1
 645 502 l 1,8,-1
 403 502 l 1,9,-1
 403 327 l 1,10,-1
 645 327 l 1,11,-1
 645 255 l 1,12,-1
 403 255 l 1,13,-1
 403 78 l 1,14,-1
 645 78 l 1,15,-1
 645 0 l 1,16,-1
 319 0 l 1,0,-1
319 327 m 1,17,-1
 319 502 l 1,18,-1
 158 502 l 1,19,-1
 158 327 l 1,20,-1
 319 327 l 1,17,-1
EndSplineSet
EndChar

StartChar: Ccedilla
Encoding: 199 199 121
Width: 481
GlyphClass: 2
Flags: W
HStem: 0 72<162 247 325 391> 499 74<162 324>
VStem: 82 80<72 499> 324 75<410 499>
LayerCount: 2
Fore
SplineSet
325 0 m 1,0,-1
 281 -174 l 1,1,-1
 195 -174 l 1,2,-1
 247 0 l 1,3,-1
 82 0 l 1,4,-1
 82 573 l 1,5,-1
 399 573 l 1,6,-1
 399 410 l 1,7,-1
 324 410 l 1,8,-1
 324 499 l 1,9,-1
 162 499 l 1,10,-1
 162 72 l 1,11,-1
 391 72 l 1,12,-1
 391 0 l 1,13,-1
 325 0 l 1,0,-1
EndSplineSet
EndChar

StartChar: Egrave
Encoding: 200 200 122
Width: 481
GlyphClass: 2
Flags: W
HStem: 0 78<158 399> 306 72<158 399> 502 71<158 399>
VStem: 82 317<0 78 306 378 502 573> 82 76<78 306 378 502>
LayerCount: 2
Fore
SplineSet
399 78 m 1,0,-1
 399 0 l 1,1,-1
 82 0 l 1,2,-1
 82 573 l 1,3,-1
 399 574 l 1,4,-1
 399 502 l 1,5,-1
 158 502 l 1,6,-1
 158 378 l 1,7,-1
 399 378 l 1,8,-1
 399 306 l 1,9,-1
 158 306 l 1,10,-1
 158 78 l 1,11,-1
 399 78 l 1,0,-1
137 788 m 1,12,-1
 342 655 l 1,13,-1
 287 594 l 1,14,-1
 82 727 l 1,15,-1
 137 788 l 1,12,-1
EndSplineSet
EndChar

StartChar: Eacute
Encoding: 201 201 123
Width: 481
GlyphClass: 2
Flags: W
HStem: 0 78<158 399> 306 72<158 399> 502 71<158 399>
VStem: 82 317<0 78 306 378 502 573> 82 76<78 306 378 502>
LayerCount: 2
Fore
SplineSet
399 78 m 1,0,-1
 399 0 l 1,1,-1
 82 0 l 1,2,-1
 82 573 l 1,3,-1
 399 574 l 1,4,-1
 399 502 l 1,5,-1
 158 502 l 1,6,-1
 158 378 l 1,7,-1
 399 378 l 1,8,-1
 399 306 l 1,9,-1
 158 306 l 1,10,-1
 158 78 l 1,11,-1
 399 78 l 1,0,-1
287 799 m 1,12,-1
 82 666 l 1,13,-1
 137 604 l 1,14,-1
 342 737 l 1,15,-1
 287 799 l 1,12,-1
EndSplineSet
EndChar

StartChar: Ecircumflex
Encoding: 202 202 124
Width: 481
GlyphClass: 2
Flags: W
HStem: 0 78<158 399> 306 72<158 399> 502 71<158 399>
VStem: 82 317<0 78 306 378 502 573> 82 76<78 306 378 502>
LayerCount: 2
Fore
SplineSet
399 78 m 1,0,-1
 399 0 l 1,1,-1
 82 0 l 1,2,-1
 82 573 l 1,3,-1
 399 574 l 1,4,-1
 399 502 l 1,5,-1
 158 502 l 1,6,-1
 158 378 l 1,7,-1
 399 378 l 1,8,-1
 399 306 l 1,9,-1
 158 306 l 1,10,-1
 158 78 l 1,11,-1
 399 78 l 1,0,-1
225 803 m 1,12,-1
 365 664 l 1,13,-1
 309 610 l 1,14,-1
 225 702 l 1,15,-1
 141 610 l 1,16,-1
 86 664 l 1,17,-1
 225 803 l 1,12,-1
EndSplineSet
EndChar

StartChar: Edieresis
Encoding: 203 203 125
Width: 481
GlyphClass: 2
Flags: W
HStem: 0 78<158 399> 306 72<158 399> 502 71<158 399>
VStem: 82 317<0 78 306 378 502 573> 82 76<78 306 378 502>
LayerCount: 2
Fore
SplineSet
399 78 m 1,0,-1
 399 0 l 1,1,-1
 82 0 l 1,2,-1
 82 573 l 1,3,-1
 399 574 l 1,4,-1
 399 502 l 1,5,-1
 158 502 l 1,6,-1
 158 378 l 1,7,-1
 399 378 l 1,8,-1
 399 306 l 1,9,-1
 158 306 l 1,10,-1
 158 78 l 1,11,-1
 399 78 l 1,0,-1
82 748 m 1,12,-1
 82 614 l 1,13,-1
 158 614 l 1,14,-1
 158 748 l 1,15,-1
 82 748 l 1,12,-1
266 748 m 1,16,-1
 266 614 l 1,17,-1
 342 614 l 1,18,-1
 342 748 l 1,19,-1
 266 748 l 1,16,-1
EndSplineSet
EndChar

StartChar: Igrave
Encoding: 204 204 126
Width: 324
GlyphClass: 2
Flags: W
HStem: 0 74<57 124 200 273> 500 73<51 124 200 268>
VStem: 57 216<0 74 500 573>
LayerCount: 2
Fore
SplineSet
124 500 m 1,0,-1
 51 500 l 1,1,-1
 51 573 l 1,2,-1
 268 573 l 1,3,-1
 268 500 l 1,4,-1
 200 500 l 1,5,-1
 200 74 l 1,6,-1
 273 74 l 1,7,-1
 273 0 l 1,8,-1
 57 0 l 1,9,-1
 57 74 l 1,10,-1
 124 74 l 1,11,-1
 124 500 l 1,0,-1
76 799 m 1,12,-1
 281 666 l 1,13,-1
 225 604 l 1,14,-1
 20 737 l 1,15,-1
 76 799 l 1,12,-1
EndSplineSet
EndChar

StartChar: Iacute
Encoding: 205 205 127
Width: 324
GlyphClass: 2
Flags: W
HStem: 0 74<57 124 200 273> 500 73<51 124 200 268>
VStem: 57 216<0 74 500 573>
LayerCount: 2
Fore
SplineSet
124 500 m 1,0,-1
 51 500 l 1,1,-1
 51 573 l 1,2,-1
 268 573 l 1,3,-1
 268 500 l 1,4,-1
 200 500 l 1,5,-1
 200 74 l 1,6,-1
 273 74 l 1,7,-1
 273 0 l 1,8,-1
 57 0 l 1,9,-1
 57 74 l 1,10,-1
 124 74 l 1,11,-1
 124 500 l 1,0,-1
225 799 m 1,12,-1
 20 666 l 1,13,-1
 76 604 l 1,14,-1
 281 737 l 1,15,-1
 225 799 l 1,12,-1
EndSplineSet
EndChar

StartChar: Icircumflex
Encoding: 206 206 128
Width: 324
GlyphClass: 2
Flags: W
HStem: 0 74<57 124 200 273> 500 73<51 124 200 268>
VStem: 57 216<0 74 500 573>
LayerCount: 2
Fore
SplineSet
124 500 m 1,0,-1
 51 500 l 1,1,-1
 51 573 l 1,2,-1
 268 573 l 1,3,-1
 268 500 l 1,4,-1
 200 500 l 1,5,-1
 200 74 l 1,6,-1
 273 74 l 1,7,-1
 273 0 l 1,8,-1
 57 0 l 1,9,-1
 57 74 l 1,10,-1
 124 74 l 1,11,-1
 124 500 l 1,0,-1
154 803 m 1,12,-1
 293 664 l 1,13,-1
 238 610 l 1,14,-1
 154 702 l 1,15,-1
 70 610 l 1,16,-1
 14 664 l 1,17,-1
 154 803 l 1,12,-1
EndSplineSet
EndChar

StartChar: Idieresis
Encoding: 207 207 129
Width: 324
GlyphClass: 2
Flags: W
HStem: 0 74<57 124 200 273> 500 73<51 124 200 268>
VStem: 57 216<0 74 500 573> 124 76<74 500>
LayerCount: 2
Fore
SplineSet
124 500 m 1,0,-1
 51 500 l 1,1,-1
 51 573 l 1,2,-1
 268 573 l 1,3,-1
 268 500 l 1,4,-1
 200 500 l 1,5,-1
 200 74 l 1,6,-1
 273 74 l 1,7,-1
 273 0 l 1,8,-1
 57 0 l 1,9,-1
 57 74 l 1,10,-1
 124 74 l 1,11,-1
 124 500 l 1,0,-1
41 758 m 1,12,-1
 41 625 l 1,13,-1
 117 625 l 1,14,-1
 117 758 l 1,15,-1
 41 758 l 1,12,-1
225 758 m 1,16,-1
 225 625 l 1,17,-1
 301 625 l 1,18,-1
 301 758 l 1,19,-1
 225 758 l 1,16,-1
EndSplineSet
EndChar

StartChar: Ntilde
Encoding: 209 209 130
Width: 481
GlyphClass: 2
Flags: W
LayerCount: 2
Fore
SplineSet
133 725 m 1,0,-1
 214 725 l 1,1,-1
 214 638 l 1,2,-1
 417 638 l 1,3,-1
 417 785 l 1,4,-1
 354 785 l 1,5,-1
 354 702 l 1,6,-1
 279 702 l 1,7,-1
 279 785 l 1,8,-1
 74 785 l 1,9,-1
 74 638 l 1,10,-1
 133 638 l 1,11,-1
 133 725 l 1,0,-1
155 574 m 1,12,-1
 82 573 l 1,13,-1
 82 0 l 1,14,-1
 158 0 l 1,15,-1
 158 358 l 1,16,-1
 339 0 l 1,17,-1
 399 0 l 1,18,-1
 399 573 l 1,19,-1
 319 573 l 1,20,-1
 319 256 l 1,21,-1
 155 574 l 1,12,-1
EndSplineSet
EndChar

StartChar: Ograve
Encoding: 210 210 131
Width: 481
GlyphClass: 2
Flags: W
HStem: 0 78<158 319> 501 72<158 319>
VStem: 82 76<78 501> 319 80<78 501>
LayerCount: 2
Fore
SplineSet
158 78 m 1,0,-1
 319 78 l 1,1,-1
 319 501 l 1,2,-1
 158 501 l 1,3,-1
 158 78 l 1,0,-1
82 0 m 1,4,-1
 82 573 l 1,5,-1
 399 573 l 1,6,-1
 399 0 l 1,7,-1
 82 0 l 1,4,-1
137 788 m 1,8,-1
 342 655 l 1,9,-1
 287 594 l 1,10,-1
 82 727 l 1,11,-1
 137 788 l 1,8,-1
EndSplineSet
EndChar

StartChar: Oacute
Encoding: 211 211 132
Width: 481
GlyphClass: 2
Flags: W
HStem: 0 78<158 319> 501 72<158 319>
VStem: 82 76<78 501> 319 80<78 501>
LayerCount: 2
Fore
SplineSet
158 78 m 1,0,-1
 319 78 l 1,1,-1
 319 501 l 1,2,-1
 158 501 l 1,3,-1
 158 78 l 1,0,-1
82 0 m 1,4,-1
 82 573 l 1,5,-1
 399 573 l 1,6,-1
 399 0 l 1,7,-1
 82 0 l 1,4,-1
287 799 m 1,8,-1
 82 666 l 1,9,-1
 137 604 l 1,10,-1
 342 737 l 1,11,-1
 287 799 l 1,8,-1
EndSplineSet
EndChar

StartChar: Ocircumflex
Encoding: 212 212 133
Width: 481
GlyphClass: 2
Flags: W
HStem: 0 78<158 319> 501 72<158 319>
VStem: 82 76<78 501> 319 80<78 501>
LayerCount: 2
Fore
SplineSet
158 78 m 1,0,-1
 319 78 l 1,1,-1
 319 501 l 1,2,-1
 158 501 l 1,3,-1
 158 78 l 1,0,-1
82 0 m 1,4,-1
 82 573 l 1,5,-1
 399 573 l 1,6,-1
 399 0 l 1,7,-1
 82 0 l 1,4,-1
225 803 m 1,8,-1
 365 664 l 1,9,-1
 309 610 l 1,10,-1
 225 702 l 1,11,-1
 141 610 l 1,12,-1
 86 664 l 1,13,-1
 225 803 l 1,8,-1
EndSplineSet
EndChar

StartChar: Otilde
Encoding: 213 213 134
Width: 481
GlyphClass: 2
Flags: W
HStem: 0 78<158 319> 501 72<158 319>
VStem: 82 76<78 501> 319 80<78 501>
LayerCount: 2
Fore
SplineSet
133 725 m 1,0,-1
 214 725 l 1,1,-1
 214 638 l 1,2,-1
 417 638 l 1,3,-1
 417 785 l 1,4,-1
 354 785 l 1,5,-1
 354 702 l 1,6,-1
 279 702 l 1,7,-1
 279 785 l 1,8,-1
 74 785 l 1,9,-1
 74 638 l 1,10,-1
 133 638 l 1,11,-1
 133 725 l 1,0,-1
158 78 m 1,12,-1
 319 78 l 1,13,-1
 319 501 l 1,14,-1
 158 501 l 1,15,-1
 158 78 l 1,12,-1
82 0 m 1,16,-1
 82 573 l 1,17,-1
 399 573 l 1,18,-1
 399 0 l 1,19,-1
 82 0 l 1,16,-1
EndSplineSet
EndChar

StartChar: Odieresis
Encoding: 214 214 135
Width: 481
GlyphClass: 2
Flags: W
HStem: 0 78<158 319> 501 72<158 319>
VStem: 82 76<78 501> 319 80<78 501>
LayerCount: 2
Fore
SplineSet
158 78 m 1,0,-1
 319 78 l 1,1,-1
 319 501 l 1,2,-1
 158 501 l 1,3,-1
 158 78 l 1,0,-1
82 0 m 1,4,-1
 82 573 l 1,5,-1
 399 573 l 1,6,-1
 399 0 l 1,7,-1
 82 0 l 1,4,-1
EndSplineSet
EndChar

StartChar: multiply
Encoding: 215 215 136
Width: 513
GlyphClass: 2
Flags: W
LayerCount: 2
Fore
SplineSet
383 44 m 1,0,-1
 256 171 l 1,1,-1
 130 44 l 1,2,-1
 72 102 l 1,3,-1
 199 228 l 1,4,-1
 72 355 l 1,5,-1
 130 414 l 1,6,-1
 256 287 l 1,7,-1
 383 414 l 1,8,-1
 441 355 l 1,9,-1
 314 228 l 1,10,-1
 441 102 l 1,11,-1
 383 44 l 1,0,-1
EndSplineSet
EndChar

StartChar: Oslash
Encoding: 216 216 137
Width: 481
GlyphClass: 2
Flags: W
HStem: 0 78<222 319> 501 72<158 259>
VStem: 82 76<119 501> 319 80<78 444>
LayerCount: 2
Fore
SplineSet
259 501 m 1,0,-1
 158 501 l 1,1,-1
 158 119 l 1,2,-1
 259 501 l 1,0,-1
222 78 m 1,3,-1
 319 78 l 1,4,-1
 319 444 l 1,5,-1
 222 78 l 1,3,-1
82 0 m 1,6,-1
 82 573 l 1,7,-1
 278 573 l 1,8,-1
 297 645 l 1,9,-1
 373 645 l 1,10,-1
 353 573 l 1,11,-1
 399 573 l 1,12,-1
 399 0 l 1,13,-1
 202 0 l 1,14,-1
 188 -51 l 1,15,-1
 113 -51 l 1,16,-1
 126 0 l 1,17,-1
 82 0 l 1,6,-1
EndSplineSet
EndChar

StartChar: Ugrave
Encoding: 217 217 138
Width: 481
GlyphClass: 2
Flags: W
HStem: 0 72<158 319> 553 20G<82 158 319 399>
VStem: 82 76<72 573> 319 80<72 573>
LayerCount: 2
Fore
SplineSet
399 573 m 1,0,-1
 399 0 l 1,1,-1
 82 0 l 1,2,-1
 82 573 l 1,3,-1
 158 573 l 1,4,-1
 158 72 l 1,5,-1
 319 72 l 1,6,-1
 319 573 l 1,7,-1
 399 573 l 1,0,-1
137 799 m 1,8,-1
 342 666 l 1,9,-1
 287 604 l 1,10,-1
 82 737 l 1,11,-1
 137 799 l 1,8,-1
EndSplineSet
EndChar

StartChar: Uacute
Encoding: 218 218 139
Width: 481
GlyphClass: 2
Flags: W
HStem: 0 72<158 319> 553 20G<82 158 319 399>
VStem: 82 76<72 573> 319 80<72 573>
LayerCount: 2
Fore
SplineSet
399 573 m 1,0,-1
 399 0 l 1,1,-1
 82 0 l 1,2,-1
 82 573 l 1,3,-1
 158 573 l 1,4,-1
 158 72 l 1,5,-1
 319 72 l 1,6,-1
 319 573 l 1,7,-1
 399 573 l 1,0,-1
287 799 m 1,8,-1
 82 666 l 1,9,-1
 137 604 l 1,10,-1
 342 737 l 1,11,-1
 287 799 l 1,8,-1
EndSplineSet
EndChar

StartChar: Ucircumflex
Encoding: 219 219 140
Width: 481
GlyphClass: 2
Flags: W
HStem: 0 72<158 319> 553 20G<82 158 319 399>
VStem: 82 76<72 573> 319 80<72 573>
LayerCount: 2
Fore
SplineSet
399 573 m 1,0,-1
 399 0 l 1,1,-1
 82 0 l 1,2,-1
 82 573 l 1,3,-1
 158 573 l 1,4,-1
 158 72 l 1,5,-1
 319 72 l 1,6,-1
 319 573 l 1,7,-1
 399 573 l 1,0,-1
225 803 m 1,8,-1
 365 664 l 1,9,-1
 309 610 l 1,10,-1
 225 702 l 1,11,-1
 141 610 l 1,12,-1
 86 664 l 1,13,-1
 225 803 l 1,8,-1
EndSplineSet
EndChar

StartChar: Udieresis
Encoding: 220 220 141
Width: 481
GlyphClass: 2
Flags: W
HStem: 0 72<158 319> 553 20G<82 158 319 399>
VStem: 82 76<72 573> 319 80<72 573>
LayerCount: 2
Fore
SplineSet
399 573 m 1,0,-1
 399 0 l 1,1,-1
 82 0 l 1,2,-1
 82 573 l 1,3,-1
 158 573 l 1,4,-1
 158 72 l 1,5,-1
 319 72 l 1,6,-1
 319 573 l 1,7,-1
 399 573 l 1,0,-1
EndSplineSet
EndChar

StartChar: Yacute
Encoding: 221 221 142
Width: 481
GlyphClass: 2
Flags: W
HStem: 0 72<82 319> 184 74<158 319> 553 20G<84 158 319 399>
VStem: 84 74<258 573> 319 80<72 184 258 573>
LayerCount: 2
Fore
SplineSet
399 573 m 1,0,-1
 399 0 l 1,1,-1
 82 0 l 1,2,-1
 82 72 l 1,3,-1
 319 72 l 1,4,-1
 319 184 l 1,5,-1
 84 184 l 1,6,-1
 84 573 l 1,7,-1
 158 573 l 1,8,-1
 158 258 l 1,9,-1
 319 258 l 1,10,-1
 319 573 l 1,11,-1
 399 573 l 1,0,-1
287 799 m 1,12,-1
 82 666 l 1,13,-1
 137 604 l 1,14,-1
 342 737 l 1,15,-1
 287 799 l 1,12,-1
EndSplineSet
EndChar

StartChar: germandbls
Encoding: 223 223 143
Width: 669
GlyphClass: 2
Flags: W
HStem: 0 21G<82 158> 574 71<158 301>
VStem: 82 76<0 574>
LayerCount: 2
Fore
SplineSet
82 645 m 1,0,-1
 301 645 l 1,1,-1
 301 574 l 1,2,-1
 158 574 l 1,3,-1
 158 0 l 1,4,-1
 82 0 l 1,5,-1
 82 645 l 1,0,-1
346 75 m 1,6,-1
 346 113 l 1,7,-1
 270 113 l 1,8,-1
 270 0 l 1,9,-1
 586 1 l 1,10,-1
 586 232 l 1,11,-1
 350 287 l 1,12,-1
 350 376 l 1,13,-1
 512 376 l 1,14,-1
 512 287 l 1,15,-1
 588 287 l 1,16,-1
 588 451 l 1,17,-1
 270 451 l 1,18,-1
 270 215 l 1,19,-1
 508 160 l 1,20,-1
 508 75 l 1,21,-1
 346 75 l 1,6,-1
EndSplineSet
EndChar

StartChar: agrave
Encoding: 224 224 144
Width: 481
GlyphClass: 2
Flags: W
HStem: 0 74<158 319> 193 73<158 319> 379 72<82 319> 656 20G<119.258 167.827>
VStem: 84 74<74 193> 319 80<74 193 266 379>
LayerCount: 2
Fore
SplineSet
319 266 m 1,0,-1
 319 379 l 1,1,-1
 82 379 l 1,2,-1
 82 451 l 1,3,-1
 399 451 l 1,4,-1
 399 0 l 1,5,-1
 84 0 l 1,6,-1
 84 266 l 1,7,-1
 319 266 l 1,0,-1
319 193 m 1,8,-1
 158 193 l 1,9,-1
 158 74 l 1,10,-1
 319 74 l 1,11,-1
 319 193 l 1,8,-1
137 676 m 1,12,-1
 342 543 l 1,13,-1
 287 481 l 1,14,-1
 82 614 l 1,15,-1
 137 676 l 1,12,-1
EndSplineSet
EndChar

StartChar: aacute
Encoding: 225 225 145
Width: 481
GlyphClass: 2
Flags: W
HStem: 0 74<158 319> 193 73<158 319> 379 72<82 319>
VStem: 84 74<74 193> 319 80<74 193 266 379>
LayerCount: 2
Fore
SplineSet
319 266 m 1,0,-1
 319 379 l 1,1,-1
 82 379 l 1,2,-1
 82 451 l 1,3,-1
 399 451 l 1,4,-1
 399 0 l 1,5,-1
 84 0 l 1,6,-1
 84 266 l 1,7,-1
 319 266 l 1,0,-1
319 193 m 1,8,-1
 158 193 l 1,9,-1
 158 74 l 1,10,-1
 319 74 l 1,11,-1
 319 193 l 1,8,-1
287 676 m 1,12,-1
 82 543 l 1,13,-1
 137 481 l 1,14,-1
 342 614 l 1,15,-1
 287 676 l 1,12,-1
EndSplineSet
EndChar

StartChar: acircumflex
Encoding: 226 226 146
Width: 481
GlyphClass: 2
Flags: W
HStem: 0 74<158 319> 193 73<158 319> 379 72<82 319>
VStem: 84 74<74 193> 319 80<74 193 266 379>
LayerCount: 2
Fore
SplineSet
319 266 m 1,0,-1
 319 379 l 1,1,-1
 82 379 l 1,2,-1
 82 451 l 1,3,-1
 399 451 l 1,4,-1
 399 0 l 1,5,-1
 84 0 l 1,6,-1
 84 266 l 1,7,-1
 319 266 l 1,0,-1
319 193 m 1,8,-1
 158 193 l 1,9,-1
 158 74 l 1,10,-1
 319 74 l 1,11,-1
 319 193 l 1,8,-1
225 680 m 1,12,-1
 365 541 l 1,13,-1
 309 487 l 1,14,-1
 225 580 l 1,15,-1
 141 487 l 1,16,-1
 86 541 l 1,17,-1
 225 680 l 1,12,-1
EndSplineSet
EndChar

StartChar: atilde
Encoding: 227 227 147
Width: 481
GlyphClass: 2
Flags: W
HStem: 0 74<158 319> 193 73<158 319> 379 72<82 319>
VStem: 84 74<74 193> 319 80<74 193 266 379>
LayerCount: 2
Fore
SplineSet
133 633 m 1,0,-1
 214 633 l 1,1,-1
 214 546 l 1,2,-1
 417 546 l 1,3,-1
 417 693 l 1,4,-1
 354 693 l 1,5,-1
 354 610 l 1,6,-1
 279 610 l 1,7,-1
 279 693 l 1,8,-1
 74 693 l 1,9,-1
 74 546 l 1,10,-1
 133 546 l 1,11,-1
 133 633 l 1,0,-1
319 266 m 1,12,-1
 319 379 l 1,13,-1
 82 379 l 1,14,-1
 82 451 l 1,15,-1
 399 451 l 1,16,-1
 399 0 l 1,17,-1
 84 0 l 1,18,-1
 84 266 l 1,19,-1
 319 266 l 1,12,-1
319 193 m 1,20,-1
 158 193 l 1,21,-1
 158 74 l 1,22,-1
 319 74 l 1,23,-1
 319 193 l 1,20,-1
EndSplineSet
EndChar

StartChar: adieresis
Encoding: 228 228 148
Width: 481
GlyphClass: 2
Flags: W
HStem: 0 74<158 319> 193 73<158 319> 379 72<82 319>
VStem: 82 76<74 193> 319 80<74 193 266 379>
LayerCount: 2
Fore
SplineSet
319 266 m 1,0,-1
 319 379 l 1,1,-1
 82 379 l 1,2,-1
 82 451 l 1,3,-1
 399 451 l 1,4,-1
 399 0 l 1,5,-1
 84 0 l 1,6,-1
 84 266 l 1,7,-1
 319 266 l 1,0,-1
319 193 m 1,8,-1
 158 193 l 1,9,-1
 158 74 l 1,10,-1
 319 74 l 1,11,-1
 319 193 l 1,8,-1
82 676 m 1,12,-1
 82 543 l 1,13,-1
 158 543 l 1,14,-1
 158 676 l 1,15,-1
 82 676 l 1,12,-1
266 676 m 1,16,-1
 266 543 l 1,17,-1
 342 543 l 1,18,-1
 342 676 l 1,19,-1
 266 676 l 1,16,-1
EndSplineSet
EndChar

StartChar: aring
Encoding: 229 229 149
Width: 481
GlyphClass: 2
Flags: W
HStem: 0 74<158 319> 193 73<158 319> 379 72<82 319> 520 43<142 219> 684 45<142 219>
VStem: 84 74<74 193> 84 58<563 684> 219 55<563 685> 319 80<74 193 266 379>
LayerCount: 2
Fore
SplineSet
319 266 m 1,0,-1
 319 379 l 1,1,-1
 82 379 l 1,2,-1
 82 451 l 1,3,-1
 399 451 l 1,4,-1
 399 0 l 1,5,-1
 84 0 l 1,6,-1
 84 266 l 1,7,-1
 319 266 l 1,0,-1
319 193 m 1,8,-1
 158 193 l 1,9,-1
 158 74 l 1,10,-1
 319 74 l 1,11,-1
 319 193 l 1,8,-1
84 520 m 1,12,-1
 84 729 l 1,13,-1
 274 729 l 1,14,-1
 274 520 l 1,15,-1
 84 520 l 1,12,-1
219 685 m 1,16,-1
 142 684 l 1,17,-1
 142 563 l 1,18,-1
 219 563 l 1,19,-1
 219 685 l 1,16,-1
EndSplineSet
EndChar

StartChar: ae
Encoding: 230 230 150
Width: 727
GlyphClass: 2
Flags: W
HStem: 0 72<158 319 408 645> 164 74<408 569> 213 74<158 319> 379 72<82 319 408 569>
VStem: 84 74<74 213> 319 89<74 164 287 377> 569 74<238 377>
CounterMasks: 1 0e
LayerCount: 2
Fore
SplineSet
84 287 m 1,0,-1
 319 287 l 1,1,-1
 319 379 l 1,2,-1
 82 379 l 1,3,-1
 82 451 l 1,4,-1
 643 451 l 1,5,-1
 643 164 l 1,6,-1
 408 164 l 1,7,-1
 408 72 l 1,8,-1
 645 72 l 1,9,-1
 645 0 l 1,10,-1
 84 0 l 1,11,-1
 84 287 l 1,0,-1
569 238 m 1,12,-1
 569 377 l 1,13,-1
 408 377 l 1,14,-1
 408 238 l 1,15,-1
 569 238 l 1,12,-1
319 74 m 1,16,-1
 319 213 l 1,17,-1
 158 213 l 1,18,-1
 158 74 l 1,19,-1
 319 74 l 1,16,-1
EndSplineSet
EndChar

StartChar: ccedilla
Encoding: 231 231 151
Width: 481
GlyphClass: 2
Flags: W
HStem: 0 72<162 247 325 391> 376 75<162 324>
VStem: 82 80<72 376> 324 75<287 376>
LayerCount: 2
Fore
SplineSet
195 -174 m 1,0,-1
 247 0 l 1,1,-1
 82 0 l 1,2,-1
 82 451 l 1,3,-1
 399 451 l 1,4,-1
 399 287 l 1,5,-1
 324 287 l 1,6,-1
 324 376 l 1,7,-1
 162 376 l 1,8,-1
 162 72 l 1,9,-1
 391 72 l 1,10,-1
 391 0 l 1,11,-1
 325 0 l 1,12,-1
 281 -174 l 1,13,-1
 195 -174 l 1,0,-1
EndSplineSet
EndChar

StartChar: egrave
Encoding: 232 232 152
Width: 481
GlyphClass: 2
Flags: W
HStem: 0 72<162 399> 184 74<162 324> 377 74<162 324> 656 20G<119.258 167.827>
VStem: 82 80<72 184 258 377> 324 73<258 377>
LayerCount: 2
Fore
SplineSet
162 184 m 1,0,-1
 162 72 l 1,1,-1
 399 72 l 1,2,-1
 399 0 l 1,3,-1
 82 0 l 1,4,-1
 82 451 l 1,5,-1
 397 451 l 1,6,-1
 397 184 l 1,7,-1
 162 184 l 1,0,-1
162 258 m 1,8,-1
 324 258 l 1,9,-1
 324 377 l 1,10,-1
 162 377 l 1,11,-1
 162 258 l 1,8,-1
137 676 m 1,12,-1
 342 543 l 1,13,-1
 287 481 l 1,14,-1
 82 614 l 1,15,-1
 137 676 l 1,12,-1
EndSplineSet
EndChar

StartChar: eacute
Encoding: 233 233 153
Width: 481
GlyphClass: 2
Flags: W
HStem: 0 72<162 399> 184 74<162 324> 377 74<162 324>
VStem: 82 80<72 184 258 377> 324 73<258 377>
LayerCount: 2
Fore
SplineSet
162 184 m 1,0,-1
 162 72 l 1,1,-1
 399 72 l 1,2,-1
 399 0 l 1,3,-1
 82 0 l 1,4,-1
 82 451 l 1,5,-1
 397 451 l 1,6,-1
 397 184 l 1,7,-1
 162 184 l 1,0,-1
162 258 m 1,8,-1
 324 258 l 1,9,-1
 324 377 l 1,10,-1
 162 377 l 1,11,-1
 162 258 l 1,8,-1
287 676 m 1,12,-1
 82 543 l 1,13,-1
 137 481 l 1,14,-1
 342 614 l 1,15,-1
 287 676 l 1,12,-1
EndSplineSet
EndChar

StartChar: ecircumflex
Encoding: 234 234 154
Width: 481
GlyphClass: 2
Flags: W
HStem: 0 72<162 399> 184 74<162 324> 377 74<162 324>
VStem: 82 80<72 184 258 377> 324 73<258 377>
LayerCount: 2
Fore
SplineSet
162 184 m 1,0,-1
 162 72 l 1,1,-1
 399 72 l 1,2,-1
 399 0 l 1,3,-1
 82 0 l 1,4,-1
 82 451 l 1,5,-1
 397 451 l 1,6,-1
 397 184 l 1,7,-1
 162 184 l 1,0,-1
162 258 m 1,8,-1
 324 258 l 1,9,-1
 324 377 l 1,10,-1
 162 377 l 1,11,-1
 162 258 l 1,8,-1
225 680 m 1,12,-1
 365 541 l 1,13,-1
 309 487 l 1,14,-1
 225 580 l 1,15,-1
 141 487 l 1,16,-1
 86 541 l 1,17,-1
 225 680 l 1,12,-1
EndSplineSet
EndChar

StartChar: edieresis
Encoding: 235 235 155
Width: 481
GlyphClass: 2
Flags: W
HStem: 0 72<162 399> 184 74<162 324> 377 74<162 324>
VStem: 82 80<72 184 258 377> 324 73<258 377>
LayerCount: 2
Fore
SplineSet
162 184 m 1,0,-1
 162 72 l 1,1,-1
 399 72 l 1,2,-1
 399 0 l 1,3,-1
 82 0 l 1,4,-1
 82 451 l 1,5,-1
 397 451 l 1,6,-1
 397 184 l 1,7,-1
 162 184 l 1,0,-1
162 258 m 1,8,-1
 324 258 l 1,9,-1
 324 377 l 1,10,-1
 162 377 l 1,11,-1
 162 258 l 1,8,-1
82 676 m 1,12,-1
 82 543 l 1,13,-1
 158 543 l 1,14,-1
 158 676 l 1,15,-1
 82 676 l 1,12,-1
266 676 m 1,16,-1
 266 543 l 1,17,-1
 342 543 l 1,18,-1
 342 676 l 1,19,-1
 266 676 l 1,16,-1
EndSplineSet
EndChar

StartChar: igrave
Encoding: 236 236 156
Width: 239
GlyphClass: 2
Flags: W
HStem: 656 20G<27.2581 75.8271>
VStem: -10 260
LayerCount: 2
Fore
SplineSet
82 450 m 1,0,-1
 82 0 l 1,1,-1
 158 0 l 1,2,-1
 158 451 l 1,3,-1
 82 450 l 1,0,-1
45 676 m 1,4,-1
 250 543 l 1,5,-1
 195 481 l 1,6,-1
 -10 614 l 1,7,-1
 45 676 l 1,4,-1
EndSplineSet
EndChar

StartChar: iacute
Encoding: 237 237 157
Width: 239
GlyphClass: 2
Flags: W
LayerCount: 2
Fore
SplineSet
82 450 m 1,0,-1
 82 0 l 1,1,-1
 158 0 l 1,2,-1
 158 451 l 1,3,-1
 82 450 l 1,0,-1
195 676 m 1,4,-1
 -10 543 l 1,5,-1
 45 481 l 1,6,-1
 250 614 l 1,7,-1
 195 676 l 1,4,-1
EndSplineSet
EndChar

StartChar: icircumflex
Encoding: 238 238 158
Width: 239
GlyphClass: 2
Flags: W
VStem: -16 278
LayerCount: 2
Fore
SplineSet
82 450 m 1,0,-1
 82 0 l 1,1,-1
 158 0 l 1,2,-1
 158 451 l 1,3,-1
 82 450 l 1,0,-1
123 680 m 1,4,-1
 262 541 l 1,5,-1
 207 487 l 1,6,-1
 123 580 l 1,7,-1
 39 487 l 1,8,-1
 -16 541 l 1,9,-1
 123 680 l 1,4,-1
EndSplineSet
EndChar

StartChar: idieresis
Encoding: 239 239 159
Width: 239
GlyphClass: 2
Flags: W
LayerCount: 2
Fore
SplineSet
82 450 m 1,0,-1
 82 0 l 1,1,-1
 158 0 l 1,2,-1
 158 451 l 1,3,-1
 82 450 l 1,0,-1
-10 676 m 1,4,-1
 -10 543 l 1,5,-1
 66 543 l 1,6,-1
 66 676 l 1,7,-1
 -10 676 l 1,4,-1
174 676 m 1,8,-1
 174 543 l 1,9,-1
 250 543 l 1,10,-1
 250 676 l 1,11,-1
 174 676 l 1,8,-1
EndSplineSet
EndChar

StartChar: ntilde
Encoding: 241 241 160
Width: 481
GlyphClass: 2
Flags: W
LayerCount: 2
Fore
SplineSet
133 623 m 1,0,-1
 214 623 l 1,1,-1
 214 536 l 1,2,-1
 417 536 l 1,3,-1
 417 683 l 1,4,-1
 354 683 l 1,5,-1
 354 600 l 1,6,-1
 279 600 l 1,7,-1
 279 683 l 1,8,-1
 74 683 l 1,9,-1
 74 536 l 1,10,-1
 133 536 l 1,11,-1
 133 623 l 1,0,-1
399 0 m 1,12,-1
 399 451 l 1,13,-1
 82 451 l 1,14,-1
 82 0 l 1,15,-1
 158 0 l 1,16,-1
 158 379 l 1,17,-1
 319 379 l 1,18,-1
 319 0 l 1,19,-1
 399 0 l 1,12,-1
EndSplineSet
EndChar

StartChar: ograve
Encoding: 242 242 161
Width: 481
GlyphClass: 2
Flags: W
HStem: 0 72<162 324> 376 75<162 324> 656 20G<119.258 167.827>
VStem: 82 80<72 376> 324 75<72 377>
LayerCount: 2
Fore
SplineSet
82 0 m 1,0,-1
 82 451 l 1,1,-1
 399 451 l 1,2,-1
 399 0 l 1,3,-1
 82 0 l 1,0,-1
324 377 m 1,4,-1
 162 376 l 1,5,-1
 162 72 l 1,6,-1
 324 72 l 1,7,-1
 324 377 l 1,4,-1
137 676 m 1,8,-1
 342 543 l 1,9,-1
 287 481 l 1,10,-1
 82 614 l 1,11,-1
 137 676 l 1,8,-1
EndSplineSet
EndChar

StartChar: oacute
Encoding: 243 243 162
Width: 481
GlyphClass: 2
Flags: W
HStem: 0 72<162 324> 376 75<162 324>
VStem: 82 80<72 376> 324 75<72 377>
LayerCount: 2
Fore
SplineSet
82 0 m 1,0,-1
 82 451 l 1,1,-1
 399 451 l 1,2,-1
 399 0 l 1,3,-1
 82 0 l 1,0,-1
324 377 m 1,4,-1
 162 376 l 1,5,-1
 162 72 l 1,6,-1
 324 72 l 1,7,-1
 324 377 l 1,4,-1
287 676 m 1,8,-1
 82 543 l 1,9,-1
 137 481 l 1,10,-1
 342 614 l 1,11,-1
 287 676 l 1,8,-1
EndSplineSet
EndChar

StartChar: ocircumflex
Encoding: 244 244 163
Width: 481
GlyphClass: 2
Flags: W
HStem: 0 72<162 324> 376 75<162 324>
VStem: 82 80<72 376> 324 75<72 377>
LayerCount: 2
Fore
SplineSet
82 0 m 1,0,-1
 82 451 l 1,1,-1
 399 451 l 1,2,-1
 399 0 l 1,3,-1
 82 0 l 1,0,-1
324 377 m 1,4,-1
 162 376 l 1,5,-1
 162 72 l 1,6,-1
 324 72 l 1,7,-1
 324 377 l 1,4,-1
225 680 m 1,8,-1
 365 541 l 1,9,-1
 309 487 l 1,10,-1
 225 580 l 1,11,-1
 141 487 l 1,12,-1
 86 541 l 1,13,-1
 225 680 l 1,8,-1
EndSplineSet
EndChar

StartChar: otilde
Encoding: 245 245 164
Width: 481
GlyphClass: 2
Flags: W
HStem: 0 72<162 324> 376 75<162 324>
VStem: 82 80<72 376> 324 75<72 377>
LayerCount: 2
Fore
SplineSet
133 623 m 1,0,-1
 214 623 l 1,1,-1
 214 536 l 1,2,-1
 417 536 l 1,3,-1
 417 683 l 1,4,-1
 354 683 l 1,5,-1
 354 600 l 1,6,-1
 279 600 l 1,7,-1
 279 683 l 1,8,-1
 74 683 l 1,9,-1
 74 536 l 1,10,-1
 133 536 l 1,11,-1
 133 623 l 1,0,-1
82 0 m 1,12,-1
 82 451 l 1,13,-1
 399 451 l 1,14,-1
 399 0 l 1,15,-1
 82 0 l 1,12,-1
324 377 m 1,16,-1
 162 376 l 1,17,-1
 162 72 l 1,18,-1
 324 72 l 1,19,-1
 324 377 l 1,16,-1
EndSplineSet
EndChar

StartChar: odieresis
Encoding: 246 246 165
Width: 481
GlyphClass: 2
Flags: W
HStem: 0 72<162 324> 376 75<162 324>
VStem: 82 80<72 376> 324 75<72 377>
LayerCount: 2
Fore
SplineSet
82 0 m 1,0,-1
 82 451 l 1,1,-1
 399 451 l 1,2,-1
 399 0 l 1,3,-1
 82 0 l 1,0,-1
324 377 m 1,4,-1
 162 376 l 1,5,-1
 162 72 l 1,6,-1
 324 72 l 1,7,-1
 324 377 l 1,4,-1
82 676 m 1,8,-1
 82 543 l 1,9,-1
 158 543 l 1,10,-1
 158 676 l 1,11,-1
 82 676 l 1,8,-1
266 676 m 1,12,-1
 266 543 l 1,13,-1
 342 543 l 1,14,-1
 342 676 l 1,15,-1
 266 676 l 1,12,-1
EndSplineSet
EndChar

StartChar: divide
Encoding: 247 247 166
Width: 512
GlyphClass: 2
Flags: W
LayerCount: 2
Fore
SplineSet
220 102 m 1,0,-1
 220 0 l 1,1,-1
 296 0 l 1,2,-1
 296 102 l 1,3,-1
 220 102 l 1,0,-1
220 451 m 1,4,-1
 220 348 l 1,5,-1
 296 348 l 1,6,-1
 296 451 l 1,7,-1
 220 451 l 1,4,-1
471 195 m 1,8,-1
 471 266 l 1,9,-1
 41 266 l 1,10,-1
 41 195 l 1,11,-1
 471 195 l 1,8,-1
EndSplineSet
EndChar

StartChar: oslash
Encoding: 248 248 167
Width: 481
GlyphClass: 2
Flags: W
HStem: 0 72<236 324> 376 75<162 243> 553 20G<291.426 373>
VStem: 82 80<78 376> 324 75<72 376>
LayerCount: 2
Fore
SplineSet
82 0 m 1,0,-1
 82 451 l 1,1,-1
 263 451 l 1,2,-1
 297 573 l 1,3,-1
 373 573 l 1,4,-1
 339 451 l 1,5,-1
 399 451 l 1,6,-1
 399 0 l 1,7,-1
 216 0 l 1,8,-1
 188 -102 l 1,9,-1
 113 -102 l 1,10,-1
 140 0 l 1,11,-1
 82 0 l 1,0,-1
243 376 m 1,12,-1
 162 376 l 1,13,-1
 162 78 l 1,14,-1
 243 376 l 1,12,-1
324 376 m 1,15,-1
 318 376 l 1,16,-1
 236 72 l 1,17,-1
 324 72 l 1,18,-1
 324 376 l 1,15,-1
EndSplineSet
EndChar

StartChar: ugrave
Encoding: 249 249 168
Width: 481
GlyphClass: 2
Flags: W
HStem: 0 72<158 319> 431 20G<82 158 319 399> 431 20G<82 158 319 399> 656 20G<119.258 167.827>
VStem: 82 76<72 451> 319 80<72 451>
LayerCount: 2
Fore
SplineSet
399 451 m 1,0,-1
 399 0 l 1,1,-1
 82 0 l 1,2,-1
 82 451 l 1,3,-1
 158 451 l 1,4,-1
 158 72 l 1,5,-1
 319 72 l 1,6,-1
 319 451 l 1,7,-1
 399 451 l 1,0,-1
137 676 m 1,8,-1
 342 543 l 1,9,-1
 287 481 l 1,10,-1
 82 614 l 1,11,-1
 137 676 l 1,8,-1
EndSplineSet
EndChar

StartChar: uacute
Encoding: 250 250 169
Width: 481
GlyphClass: 2
Flags: W
HStem: 0 72<158 319> 431 20G<82 158 319 399> 431 20G<82 158 319 399>
VStem: 82 76<72 451> 319 80<72 451>
LayerCount: 2
Fore
SplineSet
399 451 m 1,0,-1
 399 0 l 1,1,-1
 82 0 l 1,2,-1
 82 451 l 1,3,-1
 158 451 l 1,4,-1
 158 72 l 1,5,-1
 319 72 l 1,6,-1
 319 451 l 1,7,-1
 399 451 l 1,0,-1
287 676 m 1,8,-1
 82 543 l 1,9,-1
 137 481 l 1,10,-1
 342 614 l 1,11,-1
 287 676 l 1,8,-1
EndSplineSet
EndChar

StartChar: ucircumflex
Encoding: 251 251 170
Width: 481
GlyphClass: 2
Flags: W
HStem: 0 72<158 319> 431 20G<82 158 319 399> 431 20G<82 158 319 399>
VStem: 82 76<72 451> 319 80<72 451>
LayerCount: 2
Fore
SplineSet
399 451 m 1,0,-1
 399 0 l 1,1,-1
 82 0 l 1,2,-1
 82 451 l 1,3,-1
 158 451 l 1,4,-1
 158 72 l 1,5,-1
 319 72 l 1,6,-1
 319 451 l 1,7,-1
 399 451 l 1,0,-1
225 680 m 1,8,-1
 365 541 l 1,9,-1
 309 487 l 1,10,-1
 225 580 l 1,11,-1
 141 487 l 1,12,-1
 86 541 l 1,13,-1
 225 680 l 1,8,-1
EndSplineSet
EndChar

StartChar: udieresis
Encoding: 252 252 171
Width: 481
GlyphClass: 2
Flags: W
HStem: 0 72<158 319> 431 20G<82 158 319 399> 431 20G<82 158 319 399>
VStem: 82 76<72 451> 319 80<72 451>
LayerCount: 2
Fore
SplineSet
399 451 m 1,0,-1
 399 0 l 1,1,-1
 82 0 l 1,2,-1
 82 451 l 1,3,-1
 158 451 l 1,4,-1
 158 72 l 1,5,-1
 319 72 l 1,6,-1
 319 451 l 1,7,-1
 399 451 l 1,0,-1
82 676 m 1,8,-1
 82 543 l 1,9,-1
 158 543 l 1,10,-1
 158 676 l 1,11,-1
 82 676 l 1,8,-1
266 676 m 1,12,-1
 266 543 l 1,13,-1
 342 543 l 1,14,-1
 342 676 l 1,15,-1
 266 676 l 1,12,-1
EndSplineSet
EndChar

StartChar: yacute
Encoding: 253 253 172
Width: 481
GlyphClass: 2
Flags: W
HStem: -184 71<82 319> 0 74<158 319> 431 20G<84 158 319 399> 431 20G<84 158 319 399>
VStem: 84 74<74 451> 319 80<-113 0 74 451>
LayerCount: 2
Fore
SplineSet
399 451 m 1,0,-1
 399 -184 l 1,1,-1
 82 -184 l 1,2,-1
 82 -113 l 1,3,-1
 319 -113 l 1,4,-1
 319 0 l 1,5,-1
 84 0 l 1,6,-1
 84 451 l 1,7,-1
 158 451 l 1,8,-1
 158 74 l 1,9,-1
 319 74 l 1,10,-1
 319 451 l 1,11,-1
 399 451 l 1,0,-1
287 696 m 1,12,-1
 82 563 l 1,13,-1
 137 502 l 1,14,-1
 342 635 l 1,15,-1
 287 696 l 1,12,-1
EndSplineSet
EndChar

StartChar: ydieresis
Encoding: 255 255 173
Width: 481
GlyphClass: 2
Flags: W
HStem: -184 71<82 319> 0 74<158 319> 431 20G<84 158 319 399> 431 20G<84 158 319 399>
VStem: 84 74<74 451> 319 80<-113 0 74 451>
LayerCount: 2
Fore
SplineSet
399 451 m 1,0,-1
 399 -184 l 1,1,-1
 82 -184 l 1,2,-1
 82 -113 l 1,3,-1
 319 -113 l 1,4,-1
 319 0 l 1,5,-1
 84 0 l 1,6,-1
 84 451 l 1,7,-1
 158 451 l 1,8,-1
 158 74 l 1,9,-1
 319 74 l 1,10,-1
 319 451 l 1,11,-1
 399 451 l 1,0,-1
82 676 m 1,12,-1
 82 543 l 1,13,-1
 158 543 l 1,14,-1
 158 676 l 1,15,-1
 82 676 l 1,12,-1
266 676 m 1,16,-1
 266 543 l 1,17,-1
 342 543 l 1,18,-1
 342 676 l 1,19,-1
 266 676 l 1,16,-1
EndSplineSet
EndChar

StartChar: dotlessi
Encoding: 305 305 174
Width: 239
GlyphClass: 2
Flags: W
VStem: 82 76
LayerCount: 2
Fore
SplineSet
82 450 m 1,0,-1
 82 0 l 1,1,-1
 158 0 l 1,2,-1
 158 451 l 1,3,-1
 82 450 l 1,0,-1
EndSplineSet
EndChar

StartChar: OE
Encoding: 338 338 175
Width: 721
GlyphClass: 2
Flags: W
HStem: 0 78<158 319 399 640> 306 72<399 640> 502 72<158 319 399 640>
VStem: 82 76<78 501> 319 80<78 306 378 501>
LayerCount: 2
Fore
SplineSet
158 78 m 1,0,-1
 319 78 l 1,1,-1
 319 501 l 1,2,-1
 158 501 l 1,3,-1
 158 78 l 1,0,-1
640 78 m 1,4,-1
 640 0 l 1,5,-1
 82 0 l 1,6,-1
 82 573 l 1,7,8
 263 573 263 573 640 574 c 1,9,-1
 640 502 l 1,10,-1
 399 502 l 1,11,-1
 399 378 l 1,12,-1
 640 378 l 1,13,-1
 640 306 l 1,14,-1
 399 306 l 1,15,-1
 399 78 l 1,16,-1
 640 78 l 1,4,-1
EndSplineSet
EndChar

StartChar: oe
Encoding: 339 339 176
Width: 706
GlyphClass: 2
Flags: W
HStem: 0 72<162 324 387 625> 184 74<387 549> 377 74<162 324 387 549>
VStem: 82 80<72 376> 324 63<72 184 258 377> 549 74<258 377>
LayerCount: 2
Fore
SplineSet
82 0 m 1,0,-1
 82 451 l 1,1,-1
 623 451 l 1,2,-1
 623 184 l 1,3,-1
 387 184 l 1,4,-1
 387 72 l 1,5,-1
 625 72 l 1,6,-1
 625 0 l 1,7,-1
 82 0 l 1,0,-1
549 258 m 1,8,-1
 549 377 l 1,9,-1
 387 377 l 1,10,-1
 387 258 l 1,11,-1
 549 258 l 1,8,-1
324 72 m 1,12,-1
 324 377 l 1,13,-1
 162 376 l 1,14,-1
 162 72 l 1,15,-1
 324 72 l 1,12,-1
EndSplineSet
EndChar

StartChar: Scaron
Encoding: 352 352 177
Width: 481
GlyphClass: 2
Flags: W
LayerCount: 2
Fore
SplineSet
158 75 m 1,0,-1
 158 164 l 1,1,-1
 82 164 l 1,2,-1
 82 0 l 1,3,-1
 397 1 l 1,4,-1
 397 243 l 1,5,-1
 162 379 l 1,6,-1
 162 499 l 1,7,-1
 324 499 l 1,8,-1
 324 410 l 1,9,-1
 399 410 l 1,10,-1
 399 573 l 1,11,-1
 82 573 l 1,12,-1
 82 307 l 1,13,-1
 319 170 l 1,14,-1
 319 75 l 1,15,-1
 158 75 l 1,0,-1
225 610 m 1,16,-1
 86 750 l 1,17,-1
 141 803 l 1,18,-1
 225 711 l 1,19,-1
 309 803 l 1,20,-1
 365 750 l 1,21,-1
 225 610 l 1,16,-1
EndSplineSet
EndChar

StartChar: scaron
Encoding: 353 353 178
Width: 481
GlyphClass: 2
Flags: W
LayerCount: 2
Fore
SplineSet
158 75 m 1,0,-1
 158 113 l 1,1,-1
 82 113 l 1,2,-1
 82 0 l 1,3,-1
 397 1 l 1,4,-1
 397 232 l 1,5,-1
 162 287 l 1,6,-1
 162 376 l 1,7,-1
 324 376 l 1,8,-1
 324 287 l 1,9,-1
 399 287 l 1,10,-1
 399 451 l 1,11,-1
 82 451 l 1,12,-1
 82 215 l 1,13,-1
 319 160 l 1,14,-1
 319 75 l 1,15,-1
 158 75 l 1,0,-1
225 487 m 1,16,-1
 86 627 l 1,17,-1
 141 680 l 1,18,-1
 225 588 l 1,19,-1
 309 680 l 1,20,-1
 365 627 l 1,21,-1
 225 487 l 1,16,-1
EndSplineSet
EndChar

StartChar: Ydieresis
Encoding: 376 376 179
Width: 481
GlyphClass: 2
Flags: W
HStem: 0 72<82 319> 184 74<158 319> 553 20G<84 158 319 399>
VStem: 84 74<258 573> 319 80<72 184 258 573>
LayerCount: 2
Fore
SplineSet
399 573 m 1,0,-1
 399 0 l 1,1,-1
 82 0 l 1,2,-1
 82 72 l 1,3,-1
 319 72 l 1,4,-1
 319 184 l 1,5,-1
 84 184 l 1,6,-1
 84 573 l 1,7,-1
 158 573 l 1,8,-1
 158 258 l 1,9,-1
 319 258 l 1,10,-1
 319 573 l 1,11,-1
 399 573 l 1,0,-1
82 748 m 1,12,-1
 82 614 l 1,13,-1
 158 614 l 1,14,-1
 158 748 l 1,15,-1
 82 748 l 1,12,-1
266 748 m 1,16,-1
 266 614 l 1,17,-1
 342 614 l 1,18,-1
 342 748 l 1,19,-1
 266 748 l 1,16,-1
EndSplineSet
EndChar

StartChar: Zcaron
Encoding: 381 381 180
Width: 481
GlyphClass: 2
Flags: W
HStem: 0 72<182 391> 499 74<82 319>
VStem: 82 317<499 573>
LayerCount: 2
Fore
SplineSet
182 72 m 1,0,-1
 391 72 l 1,1,-1
 391 0 l 1,2,-1
 82 0 l 1,3,-1
 82 72 l 1,4,-1
 319 499 l 1,5,-1
 82 499 l 1,6,-1
 82 573 l 1,7,-1
 399 573 l 1,8,-1
 399 496 l 1,9,-1
 182 72 l 1,0,-1
225 600 m 1,10,-1
 86 739 l 1,11,-1
 141 793 l 1,12,-1
 225 700 l 1,13,-1
 309 793 l 1,14,-1
 365 739 l 1,15,-1
 225 600 l 1,10,-1
EndSplineSet
EndChar

StartChar: zcaron
Encoding: 382 382 181
Width: 481
GlyphClass: 2
Flags: W
HStem: 0 72<182 391> 376 75<82 319>
VStem: 82 317<376 451>
LayerCount: 2
Fore
SplineSet
182 72 m 1,0,-1
 391 72 l 1,1,-1
 391 0 l 1,2,-1
 82 0 l 1,3,-1
 82 72 l 1,4,-1
 319 376 l 1,5,-1
 82 376 l 1,6,-1
 82 451 l 1,7,-1
 399 451 l 1,8,-1
 399 373 l 1,9,-1
 182 72 l 1,0,-1
225 487 m 1,10,-1
 86 627 l 1,11,-1
 141 680 l 1,12,-1
 225 588 l 1,13,-1
 309 680 l 1,14,-1
 365 627 l 1,15,-1
 225 487 l 1,10,-1
EndSplineSet
EndChar

StartChar: florin
Encoding: 402 402 182
Width: 481
GlyphClass: 2
Flags: W
HStem: 184 71<82 180 256 399> 380 71<256 399>
VStem: 180 76<-195 184 255 380>
LayerCount: 2
Fore
SplineSet
82 255 m 1,0,-1
 180 255 l 1,1,-1
 180 451 l 1,2,-1
 399 451 l 1,3,-1
 399 380 l 1,4,-1
 256 380 l 1,5,-1
 256 255 l 1,6,-1
 399 255 l 1,7,-1
 399 184 l 1,8,-1
 256 184 l 1,9,-1
 256 -195 l 1,10,-1
 180 -195 l 1,11,-1
 180 184 l 1,12,-1
 82 184 l 1,13,-1
 82 255 l 1,0,-1
EndSplineSet
EndChar

StartChar: circumflex
Encoding: 710 710 183
Width: 481
GlyphClass: 2
Flags: W
HStem: 487 193
VStem: 86 279
LayerCount: 2
Fore
SplineSet
225 680 m 1,0,-1
 365 541 l 1,1,-1
 309 487 l 1,2,-1
 225 580 l 1,3,-1
 141 487 l 1,4,-1
 86 541 l 1,5,-1
 225 680 l 1,0,-1
EndSplineSet
EndChar

StartChar: breve
Encoding: 728 728 184
Width: 481
GlyphClass: 2
Flags: W
HStem: 487 193
VStem: 86 279
LayerCount: 2
Fore
SplineSet
225 487 m 1,0,-1
 86 627 l 1,1,-1
 141 680 l 1,2,-1
 225 588 l 1,3,-1
 309 680 l 1,4,-1
 365 627 l 1,5,-1
 225 487 l 1,0,-1
EndSplineSet
EndChar

StartChar: ring
Encoding: 730 730 185
Width: 481
GlyphClass: 2
Flags: W
HStem: 520 43<142 219> 684 45<142 219>
VStem: 84 58<563 684> 219 55<563 685>
LayerCount: 2
Fore
SplineSet
84 520 m 1,0,-1
 84 729 l 1,1,-1
 274 729 l 1,2,-1
 274 520 l 1,3,-1
 84 520 l 1,0,-1
219 685 m 1,4,-1
 142 684 l 1,5,-1
 142 563 l 1,6,-1
 219 563 l 1,7,-1
 219 685 l 1,4,-1
EndSplineSet
EndChar

StartChar: endash
Encoding: 8211 8211 186
Width: 512
GlyphClass: 2
Flags: W
HStem: 205 71
LayerCount: 2
Fore
SplineSet
512 205 m 1,0,-1
 512 276 l 1,1,-1
 0 276 l 1,2,-1
 0 205 l 1,3,-1
 512 205 l 1,0,-1
EndSplineSet
EndChar

StartChar: emdash
Encoding: 8212 8212 187
Width: 1024
GlyphClass: 2
Flags: W
HStem: 205 71
LayerCount: 2
Fore
SplineSet
1024 205 m 1,0,-1
 1024 276 l 1,1,-1
 0 276 l 1,2,-1
 0 205 l 1,3,-1
 1024 205 l 1,0,-1
EndSplineSet
EndChar

StartChar: quoteleft
Encoding: 8216 8216 188
Width: 137
GlyphClass: 2
Flags: W
HStem: 430 205<82 106>
VStem: 20 138
LayerCount: 2
Fore
SplineSet
20 430 m 1,0,-1
 82 635 l 1,1,-1
 158 635 l 1,2,-1
 106 430 l 1,3,-1
 20 430 l 1,0,-1
EndSplineSet
EndChar

StartChar: quoteright
Encoding: 8217 8217 189
Width: 126
GlyphClass: 2
Flags: W
HStem: 430 205<20 55>
VStem: -20 126
LayerCount: 2
Fore
SplineSet
-20 430 m 1,0,-1
 20 635 l 1,1,-1
 106 635 l 1,2,-1
 55 430 l 1,3,-1
 -20 430 l 1,0,-1
EndSplineSet
EndChar

StartChar: quotesinglbase
Encoding: 8218 8218 190
Width: 126
GlyphClass: 2
Flags: W
HStem: -82 205<20 55>
VStem: -20 126
LayerCount: 2
Fore
SplineSet
-20 -82 m 1,0,-1
 20 123 l 1,1,-1
 106 123 l 1,2,-1
 55 -82 l 1,3,-1
 -20 -82 l 1,0,-1
EndSplineSet
EndChar

StartChar: quotedblleft
Encoding: 8220 8220 191
Width: 260
GlyphClass: 2
Flags: W
HStem: 430 205<82 106 205 229>
VStem: 20 261
LayerCount: 2
Fore
SplineSet
143 430 m 1,0,-1
 205 635 l 1,1,-1
 281 635 l 1,2,-1
 229 430 l 1,3,-1
 143 430 l 1,0,-1
20 430 m 1,4,-1
 82 635 l 1,5,-1
 158 635 l 1,6,-1
 106 430 l 1,7,-1
 20 430 l 1,4,-1
EndSplineSet
EndChar

StartChar: quotedblright
Encoding: 8221 8221 192
Width: 249
GlyphClass: 2
Flags: W
HStem: 430 205<20 55 143 178>
VStem: -20 249
LayerCount: 2
Fore
SplineSet
102 430 m 1,0,-1
 143 635 l 1,1,-1
 229 635 l 1,2,-1
 178 430 l 1,3,-1
 102 430 l 1,0,-1
-20 430 m 1,4,-1
 20 635 l 1,5,-1
 106 635 l 1,6,-1
 55 430 l 1,7,-1
 -20 430 l 1,4,-1
EndSplineSet
EndChar

StartChar: quotedblbase
Encoding: 8222 8222 193
Width: 249
GlyphClass: 2
Flags: W
HStem: -82 205<20 55 143 178>
VStem: -20 249
LayerCount: 2
Fore
SplineSet
102 -82 m 1,0,-1
 143 123 l 1,1,-1
 229 123 l 1,2,-1
 178 -82 l 1,3,-1
 102 -82 l 1,0,-1
-20 -82 m 1,4,-1
 20 123 l 1,5,-1
 106 123 l 1,6,-1
 55 -82 l 1,7,-1
 -20 -82 l 1,4,-1
EndSplineSet
EndChar

StartChar: bullet
Encoding: 8226 8226 194
Width: 409
GlyphClass: 2
Flags: W
HStem: 205 246<102 307>
VStem: 102 205<205 451>
LayerCount: 2
Fore
SplineSet
102 451 m 1,0,-1
 307 451 l 1,1,-1
 307 205 l 1,2,-1
 102 205 l 1,3,-1
 102 451 l 1,0,-1
EndSplineSet
EndChar

StartChar: guilsinglleft
Encoding: 8249 8249 195
Width: 389
GlyphClass: 2
Flags: W
VStem: 51 287
LayerCount: 2
Fore
SplineSet
51 236 m 1,0,-1
 283 467 l 1,1,-1
 338 410 l 1,2,-1
 167 236 l 1,3,-1
 338 61 l 1,4,-1
 283 4 l 1,5,-1
 51 236 l 1,0,-1
EndSplineSet
EndChar

StartChar: guilsinglright
Encoding: 8250 8250 196
Width: 389
GlyphClass: 2
Flags: W
LayerCount: 2
Fore
SplineSet
338 236 m 1,0,-1
 106 467 l 1,1,-1
 51 410 l 1,2,-1
 222 236 l 1,3,-1
 51 61 l 1,4,-1
 106 4 l 1,5,-1
 338 236 l 1,0,-1
EndSplineSet
EndChar

StartChar: fraction
Encoding: 8260 8260 197
Width: 481
GlyphClass: 2
Flags: W
LayerCount: 2
Fore
SplineSet
399 444 m 1,0,-1
 337 480 l 1,1,-1
 82 37 l 1,2,-1
 144 1 l 1,3,-1
 399 444 l 1,0,-1
EndSplineSet
EndChar

StartChar: trademark
Encoding: 8482 8482 198
Width: 716
GlyphClass: 2
Flags: W
HStem: 313 74<160 219> 510 74<29 84 160 219 371 436 516 579>
VStem: 84 135<313 387> 84 76<387 510 584 664> 295 76<313 510> 436 80<313 510> 579 78<313 510>
LayerCount: 2
Fore
SplineSet
516 313 m 1,0,-1
 436 313 l 1,1,-1
 436 510 l 1,2,-1
 371 510 l 1,3,-1
 371 313 l 1,4,-1
 295 313 l 1,5,-1
 295 584 l 1,6,-1
 657 584 l 1,7,-1
 657 313 l 1,8,-1
 579 313 l 1,9,-1
 579 510 l 1,10,-1
 516 510 l 1,11,-1
 516 313 l 1,0,-1
219 313 m 1,12,-1
 84 313 l 1,13,-1
 84 510 l 1,14,-1
 29 510 l 1,15,-1
 29 584 l 1,16,-1
 84 584 l 1,17,-1
 84 664 l 1,18,-1
 160 664 l 1,19,-1
 160 584 l 1,20,-1
 219 584 l 1,21,-1
 219 510 l 1,22,-1
 160 510 l 1,23,-1
 160 387 l 1,24,-1
 219 387 l 1,25,-1
 219 313 l 1,12,-1
EndSplineSet
EndChar

StartChar: minus
Encoding: 8722 8722 199
Width: 409
GlyphClass: 2
Flags: W
HStem: 205 71
LayerCount: 2
Fore
SplineSet
394 205 m 1,0,-1
 394 276 l 1,1,-1
 15 276 l 1,2,-1
 15 205 l 1,3,-1
 394 205 l 1,0,-1
EndSplineSet
EndChar

StartChar: infinity
Encoding: 8734 8734 200
Width: 512
GlyphClass: 2
Flags: W
HStem: 77 81<105 216 297 402> 318 76<105 216 297 402>
VStem: 31 74<158 318> 216 81<158 318> 402 78<158 318>
LayerCount: 2
Fore
SplineSet
216 158 m 1,0,-1
 216 318 l 1,1,-1
 105 318 l 1,2,-1
 105 158 l 1,3,-1
 216 158 l 1,0,-1
297 158 m 1,4,-1
 402 158 l 1,5,-1
 402 318 l 1,6,-1
 297 318 l 1,7,-1
 297 158 l 1,4,-1
31 77 m 1,8,-1
 31 394 l 1,9,-1
 481 394 l 1,10,-1
 480 77 l 1,11,-1
 31 77 l 1,8,-1
EndSplineSet
EndChar

StartChar: notequal
Encoding: 8800 8800 201
Width: 491
GlyphClass: 2
Flags: W
HStem: 82 72<26 148 272 466> 205 71<26 219 343 466>
LayerCount: 2
Fore
SplineSet
466 82 m 1,0,-1
 231 82 l 1,1,-1
 167 -30 l 1,2,-1
 104 6 l 1,3,-1
 148 82 l 1,4,-1
 26 82 l 1,5,-1
 26 154 l 1,6,-1
 189 154 l 1,7,-1
 219 205 l 1,8,-1
 26 205 l 1,9,-1
 26 276 l 1,10,-1
 260 276 l 1,11,-1
 325 388 l 1,12,-1
 387 352 l 1,13,-1
 343 276 l 1,14,-1
 466 276 l 1,15,-1
 466 205 l 1,16,-1
 302 205 l 1,17,-1
 272 154 l 1,18,-1
 466 154 l 1,19,-1
 466 82 l 1,0,-1
EndSplineSet
EndChar

StartChar: lessequal
Encoding: 8804 8804 202
Width: 389
GlyphClass: 2
Flags: W
VStem: 26 338
LayerCount: 2
Fore
SplineSet
51 307 m 1,0,-1
 283 498 l 1,1,-1
 338 440 l 1,2,-1
 167 307 l 1,3,-1
 338 174 l 1,4,-1
 283 117 l 1,5,-1
 51 307 l 1,0,-1
364 0 m 1,6,-1
 364 72 l 1,7,-1
 26 72 l 1,8,-1
 26 0 l 1,9,-1
 364 0 l 1,6,-1
EndSplineSet
EndChar

StartChar: greaterequal
Encoding: 8805 8805 203
Width: 389
GlyphClass: 2
Flags: W
HStem: 0 72<26 364>
VStem: 26 338<0 72>
LayerCount: 2
Fore
SplineSet
338 307 m 1,0,-1
 106 498 l 1,1,-1
 51 440 l 1,2,-1
 222 307 l 1,3,-1
 51 174 l 1,4,-1
 106 117 l 1,5,-1
 338 307 l 1,0,-1
26 0 m 1,6,-1
 26 72 l 1,7,-1
 364 72 l 1,8,-1
 364 0 l 1,9,-1
 26 0 l 1,6,-1
EndSplineSet
EndChar

StartChar: fi
Encoding: 64257 64257 204
Width: 649
GlyphClass: 2
Flags: W
HStem: 0 21G<180 256> 379 71<82 180 256 399> 574 71<256 399>
VStem: 180 76<0 379 450 574>
LayerCount: 2
Fore
SplineSet
82 450 m 1,0,-1
 180 450 l 1,1,-1
 180 645 l 1,2,-1
 399 645 l 1,3,-1
 399 574 l 1,4,-1
 256 574 l 1,5,-1
 256 450 l 1,6,-1
 399 450 l 1,7,-1
 399 379 l 1,8,-1
 256 379 l 1,9,-1
 256 0 l 1,10,-1
 180 0 l 1,11,-1
 180 379 l 1,12,-1
 82 379 l 1,13,-1
 82 450 l 1,0,-1
492 450 m 1,14,-1
 492 0 l 1,15,-1
 567 0 l 1,16,-1
 567 451 l 1,17,-1
 492 450 l 1,14,-1
492 676 m 1,18,-1
 492 543 l 1,19,-1
 567 543 l 1,20,-1
 567 676 l 1,21,-1
 492 676 l 1,18,-1
EndSplineSet
EndChar

StartChar: fl
Encoding: 64258 64258 205
Width: 649
GlyphClass: 2
Flags: W
HStem: 0 21G<180 256> 379 71<82 180 256 399> 574 71<256 399>
VStem: 180 76<0 379 450 574>
LayerCount: 2
Fore
SplineSet
82 450 m 1,0,-1
 180 450 l 1,1,-1
 180 645 l 1,2,-1
 399 645 l 1,3,-1
 399 574 l 1,4,-1
 256 574 l 1,5,-1
 256 450 l 1,6,-1
 399 450 l 1,7,-1
 399 379 l 1,8,-1
 256 379 l 1,9,-1
 256 0 l 1,10,-1
 180 0 l 1,11,-1
 180 379 l 1,12,-1
 82 379 l 1,13,-1
 82 450 l 1,0,-1
492 676 m 1,14,-1
 492 0 l 1,15,-1
 567 0 l 1,16,-1
 567 676 l 1,17,-1
 492 676 l 1,14,-1
EndSplineSet
EndChar
